<svg width="82" height="266" viewBox="0 0 82 266" fill="none" xmlns="http://www.w3.org/2000/svg">
<path fill-rule="evenodd" clip-rule="evenodd" d="M67.041 187.867C66.0357 191.965 61.6988 194.589 61.3196 199.162C61.287 199.584 60.6949 200.226 60.272 200.307C57.8682 200.782 57.7139 202.736 57.1113 204.543C56.7119 205.736 56.0685 207.656 54.2995 206.542C52.444 205.37 52.6821 206.831 52.8148 207.541C53.8147 212.68 49.6285 216.334 48.8969 221.063C48.6041 222.946 46.957 225.794 45.2986 226.963C43.048 228.547 43.3692 230.276 43.0999 232.226C43.0284 232.745 42.3553 233.28 41.8386 233.624C40.6079 234.44 39.1642 234.686 37.7329 234.923L37.5178 235.111C36.7323 235.822 35.1621 236.753 35.2885 237.214C36.2263 240.624 32.7525 241.836 31.9264 244.339C31.6091 245.299 29.8741 246.701 28.9538 244.966C28.1437 243.432 26.6767 241.623 27.714 239.655C30.5606 234.262 31.1041 227.976 34.3163 222.766C35.6996 220.52 34.6913 218.409 34.4924 216.262C34.4222 215.523 33.6493 215.662 32.829 216.051C29.4488 217.665 28.5783 220.442 28.7258 223.842C28.7915 225.335 28.7576 226.813 28.2055 228.265C25.8638 234.413 21.7123 239.256 17.119 243.79C16.6893 243.806 16.2565 243.824 15.8268 243.839C15.5181 246.069 15.3597 248.391 12.5546 249.056C11.9444 249.202 12.0237 249.528 12.2546 249.961C13.1767 251.705 12.0048 252.651 10.8342 253.586C10.0529 254.208 7.37971 257.652 6.82251 258.743C6.72861 258.93 6.61376 259.255 6.50061 259.26C3.56419 259.331 4.39173 262.286 3.12542 263.627C2.85313 264.408 2.20283 264.788 1.52469 265.14L1.57729 265.25C1.65651 265.374 1.73572 265.498 1.81492 265.622C1.68998 265.53 1.56256 265.434 1.43761 265.342C1.24841 265.372 1.0846 265.453 0.943674 265.581C0.253352 266.272 -0.431424 266.964 -1.12176 267.655C-2.2172 269.411 -2.4175 272.036 -5.50678 271.809C-6.46214 271.739 -6.45979 272.736 -6.33142 273.51C-5.76463 274.343 -4.87739 274.213 -4.04073 274.312C-3.35434 274.395 -2.97105 272.992 -2.14325 273.96C-1.81164 274.348 -1.84114 274.716 -2.20269 275.057C-2.87266 275.691 -3.4291 275.834 -4.38035 275.269C-4.96422 274.922 -5.92854 275.519 -6.93901 275.26C-7.78499 275.042 -9.78902 276.255 -9.29924 277.657C-8.61008 279.623 -10.2959 280.302 -10.4447 281.978C-11.6231 281.149 -10.6549 278.431 -13.0218 279.667C-14.0007 279.631 -15.1451 279.718 -14.2376 278.209C-14.2406 278.212 -14.2431 278.209 -14.2462 278.211C-17.5178 278.206 -19.5127 280.33 -20.2633 282.991C-21.8879 288.766 -24.3759 294.175 -26.3859 299.768C-28.9034 306.768 -31.1191 313.915 -33.4195 321.014C-33.9745 322.722 -34.9229 324.243 -36.3748 325.404C-35.9109 321.924 -34.2874 318.856 -33.8563 315.468C-36.0467 313.506 -38.5688 312.529 -41.521 313.099C-42.3928 313.267 -43.1878 313.505 -43.8176 312.733C-43.947 312.578 -43.8247 312.135 -43.7031 311.875C-43.1898 310.748 -42.1954 310.873 -41.2475 311.035C-40.4739 311.169 -39.6721 312.016 -38.9696 311.011C-38.28 310.021 -38.9513 309.217 -39.51 308.438C-39.675 308.53 -39.8456 308.622 -40.0132 308.71C-40.0355 308.607 -40.0522 308.504 -40.0745 308.4C-39.8872 308.412 -39.6998 308.423 -39.5125 308.435C-36.1689 309.011 -35.9389 306.373 -35.1342 304.393C-35.7197 303.322 -36.9776 305.25 -37.1589 303.859C-37.2818 302.908 -36.2746 302.662 -35.3763 302.458C-33.6606 302.07 -32.1962 303.672 -30.4826 302.946C-29.4691 299.334 -27.4773 295.839 -29.1629 291.909C-30.582 290.534 -32.1339 289.417 -34.2042 289.295C-34.3266 290.478 -34.9162 291.149 -36.1397 291.416C-38.0211 291.827 -37.3655 289.769 -38.321 289.32C-38.4984 289.447 -38.6789 289.576 -38.8563 289.704C-40.1657 290.212 -40.0531 291.46 -39.8406 292.339C-39.3425 294.428 -40.2894 295.148 -42.1127 295.339C-41.5036 296.807 -41.5685 298.081 -43.4332 298.366C-45.4952 298.678 -45.957 300.154 -46.2975 301.806C-45.6638 303.001 -44.6701 304.403 -46.5308 305.187C-47.3877 305.551 -49.0573 305.37 -49.6066 304.762C-50.6682 303.591 -48.9899 302.624 -48.5985 301.529C-48.4713 301.169 -47.7423 301.019 -47.2874 300.776C-47.5697 298.747 -47.8526 296.723 -48.135 294.693C-49.2006 296.639 -48.7614 299.541 -51.7056 300.292C-51.0002 301.272 -51.0305 302.488 -51.8551 303.094C-53.1395 304.039 -52.1304 301.384 -53.4386 301.831C-53.6581 301.905 -53.994 301.633 -54.2772 301.52C-54.9769 302.067 -54.953 302.844 -54.9427 303.616C-53.5584 305.967 -56.217 306.352 -57.4041 307.817C-55.8478 307.724 -54.183 306.955 -54.7112 309.26C-53.5094 310.08 -52.7321 308.984 -51.8029 308.603C-51.4125 307.824 -52.1273 306.471 -50.832 306.242C-50.0969 306.114 -48.9665 306.306 -48.526 306.804C-47.0722 308.451 -49.408 308.947 -49.7537 310.086C-49.589 312.95 -52.4634 312.206 -53.6951 313.413C-53.9626 312.75 -53.6269 311.371 -54.8139 311.766C-56.9826 312.483 -56.827 310.695 -57.465 309.717C-57.9889 309.336 -58.5159 308.958 -59.0398 308.578C-61.0337 312.881 -63.3727 317.045 -64.6937 321.628C-65.3474 323.897 -66.7632 325.495 -68.607 326.813C-68.7418 328.158 -69.9976 328.132 -70.8265 328.625C-68.7502 329.914 -70.2207 330.962 -70.9404 332.25C-71.8702 333.909 -72.1374 332.38 -72.6737 332.06C-73.9607 332.647 -75.1841 332.072 -76.3516 331.732C-77.5087 331.399 -78.1615 331.7 -78.6204 332.717C-79.5208 335.027 -81.5984 336.269 -83.3141 337.828C-83.3988 337.907 -83.765 337.678 -84.0482 337.541C-83.8053 337.356 -83.5655 337.173 -83.3251 336.985C-83.6912 336.833 -84.0295 336.709 -84.1469 336.88C-84.0295 336.709 -83.6856 336.834 -83.3251 336.985C-83.568 337.17 -83.8078 337.353 -84.0482 337.541C-84.0575 337.548 -84.0668 337.556 -84.073 337.561L-84.1497 337.49C-87.8932 343.481 -89.8722 350.348 -93.1029 356.946C-93.8868 355.887 -93.6972 355.395 -93.5522 354.873C-92.5467 351.258 -91.9135 347.495 -89.8746 344.261C-88.8465 342.63 -89.8249 340.885 -88.8037 338.986C-87.2766 336.153 -85.6521 332.618 -87.7883 329.096C-89.9032 330.038 -91.126 331.75 -91.5003 333.936C-91.7691 335.526 -92.9224 335.286 -93.89 335.454C-94.6536 335.586 -95.0934 335.057 -95.1729 334.35C-95.2878 333.352 -95.2389 332.274 -93.9633 332.122C-91.6286 331.839 -91.7458 329.921 -91.2649 328.374C-92.49 326.746 -92.8283 325.223 -90.7322 323.992C-92.4718 323.502 -95.7519 323.702 -91.8461 320.952C-90.9238 320.303 -91.457 318.759 -92.4139 317.89C-93.1866 317.187 -94.0433 316.582 -94.8641 315.933C-95.3337 316.664 -95.5933 318.145 -96.8429 316.892C-98.1154 315.617 -97.6278 313.933 -96.801 312.747C-96.0614 311.687 -95.7225 313.053 -95.2882 313.505L-95.0477 313.444C-94.374 312.928 -93.6972 312.41 -93.0234 311.895C-94.168 309.336 -91.5269 309.796 -90.611 308.873C-90.9972 307.987 -91.3835 307.101 -91.7729 306.217C-92.3661 306.972 -92.9624 307.729 -93.5581 308.481C-93.6742 308.716 -93.7439 309.092 -93.9195 309.152C-94.3962 309.311 -94.6047 308.982 -94.6451 308.533C-94.5895 305.867 -92.0725 304.115 -92.0009 301.457C-94.7076 298.332 -91.7164 297.69 -89.8564 296.557C-89.6257 295.414 -89.3085 294.277 -89.181 293.125C-88.9957 291.425 -88.8409 289.389 -90.9255 288.939C-93.0243 288.489 -93.1308 290.775 -93.934 292.028C-94.3937 292.747 -94.2908 293.318 -93.7983 294.033C-93.3571 294.678 -93.4808 295.847 -94.2982 295.854C-96.8779 295.882 -97.7697 297.936 -99.2042 299.397C-99.6584 299.863 -100.618 300.927 -100.707 299.057C-101.599 298.769 -102.211 299.367 -102.895 299.749C-103.703 301.731 -104.423 303.753 -105.329 305.688C-108.242 311.91 -109.619 318.748 -113.081 324.741C-113.804 326.98 -114.637 329.159 -116.333 330.901C-116.04 328.886 -115.524 326.977 -114.271 325.347C-114.452 324.205 -116.146 322.619 -114.509 322.019C-111.999 321.1 -112.191 318.988 -111.4 317.263C-109.566 313.256 -109.344 308.865 -108.364 304.661C-107.774 302.13 -107.214 299.718 -109.454 297.689C-110.027 297.779 -110.597 297.866 -111.173 297.953C-116.583 311.173 -120.901 324.85 -127.453 338.18C-128.063 336.687 -127.603 336.019 -127.337 335.344C-124.78 328.856 -122.255 322.353 -119.615 315.899C-115.576 306.035 -112.874 295.714 -109.181 285.734C-109.037 285.344 -109.128 284.844 -108.932 284.5C-107.074 281.224 -108.648 277.397 -106.126 273.796C-102.008 267.91 -101.745 260.211 -99.242 253.472C-97.6896 249.29 -96.815 244.745 -94.6187 240.954C-92.7888 237.802 -94.2927 237.524 -96.4498 236.762C-97.2406 239.404 -98.1279 241.926 -98.7381 244.515C-100.183 250.628 -103.598 255.939 -105.639 261.836C-107.476 267.144 -109.916 272.341 -113.954 276.521C-114.252 279.183 -116.362 280.999 -117.197 283.408C-119.532 283.513 -120.414 288.277 -123.702 285.472C-123.733 285.446 -124.39 285.964 -124.545 286.316C-124.981 287.31 -125.896 287.279 -126.71 287.43C-130.149 288.077 -133.591 288.696 -137.029 289.326C-148.219 291.384 -159.408 293.436 -170.626 295.491C-170.834 294.112 -170.141 293.216 -169.734 292.26C-153.162 252.965 -136.573 213.672 -119.985 174.385C-101.994 131.781 -83.9944 89.1746 -66.0033 46.5706C-59.7314 31.7261 -53.4249 16.8995 -47.2445 2.01696C-46.1508 -0.61516 -45.3803 -0.579685 -43.8155 1.59117C-42.0595 4.01919 -40.0593 6.27655 -38.1655 8.60405C-37.095 9.03234 -36.5956 9.73665 -37.0402 10.9047C-35.5044 12.0899 -34.1798 13.4803 -33.0679 15.0617C-32.2796 16.1829 -30.9882 17.0067 -30.7896 18.4696C-30.5643 20.1493 -32.3041 20.6283 -33.2292 21.6093C-31.4213 22.7789 -30.9413 20.528 -29.6448 20.3642C-30.1104 25.2854 -30.9947 27.6784 -33.1595 30.1918C-33.2503 30.3002 -33.1333 30.5916 -33.1109 30.7967C-33.1103 30.7911 -33.0949 30.7027 -33.0949 30.7027C-33.0875 30.7373 -33.0788 30.7608 -33.0708 30.7898C-33.085 30.7911 -33.0967 30.7954 -33.1109 30.7967C-33.2433 32.0436 -37.0927 32.6041 -33.8122 34.4876C-33.9939 34.7297 -34.1205 35.0848 -34.3609 35.1968C-37.4507 36.6023 -37.1353 41.5911 -42.0234 41.2313C-39.9549 42.9724 -38.525 42.3163 -37.0987 41.9217C-36.5089 41.7574 -35.782 41.2702 -35.363 41.9884C-34.9725 42.6584 -35.5145 43.205 -36.1346 43.4392C-37.7049 44.0407 -37.12 45.0414 -36.6979 46.0358C-36.6979 46.0358 -36.414 46.0665 -36.4165 46.0634C-35.8954 45.7313 -35.804 44.2435 -34.86 45.1789C-33.8343 46.1907 -34.8854 47.5972 -35.5166 47.9315C-37.7166 49.1095 -37.2861 50.6144 -35.8461 52.9462C-38.0548 51.7586 -39.0548 52.602 -39.6473 53.7315C-40.2903 54.9626 -39.404 55.5793 -38.2982 56.0452C-37.0848 56.5565 -37.7348 57.3926 -38.09 58.1593C-38.531 59.1167 -39.8294 59.3478 -40.0657 60.4652C-40.1034 60.4499 -40.1473 60.4395 -40.185 60.4242C-40.1442 60.437 -40.1034 60.4499 -40.0657 60.4652L-40.0601 60.4658C-38.5144 61.41 -39.5132 62.2676 -40.2184 63.0161C-41.243 64.1074 -42.4131 65.0619 -43.4297 66.1568C-44.1645 66.9444 -44.5237 68.2821 -43.0231 68.1573C-38.7716 67.8064 -41.1028 70.2963 -41.8264 71.2117C-43.4732 73.2942 -45.5468 75.0349 -47.4473 76.9153C-47.2982 77.1201 -47.1497 77.3304 -47.0006 77.5352C-46.0059 79.6415 -48.8561 81.453 -48.6526 81.7003C-46.0101 84.897 -50.9745 86.5249 -50.0401 89.2018C-53.3692 91.7526 -52.8502 95.9949 -53.9251 99.347C-55.1148 103.05 -56.179 106.763 -57.9154 110.266C-60.2282 114.931 -63.2361 119.186 -65.975 123.631C-65.1432 123.926 -64.4488 122.689 -63.8214 123.484C-63.2732 124.179 -63.9549 124.894 -64.2761 125.532C-64.7067 126.394 -65.2411 127.204 -65.7014 128.055C-67.7826 131.926 -68.7148 135.082 -68.4288 138.148C-65.1891 132.46 -61.2588 127.885 -59.3943 122.003C-56.6537 113.344 -52.2026 105.411 -48.3488 97.2279C-48.0437 96.5824 -47.508 95.762 -46.9138 95.5842C-44.9373 95.0013 -44.5442 93.5349 -44.0639 91.8161C-43.6405 90.3051 -43.0547 88.2177 -40.5986 89.7642C-40.3384 89.5756 -40.0781 89.387 -39.8179 89.1984C-40.3437 86.2644 -39.3779 83.7198 -37.8456 81.2731C-37.3501 80.4849 -37.1589 79.4949 -36.886 78.5814C-35.4915 73.8929 -33.5879 69.5411 -29.2016 66.8006C-31.6307 64.9839 -30.9791 63.5229 -28.6622 62.2561C-27.6514 61.7996 -26.6438 61.3456 -25.1768 60.6851C-26.1214 63.7246 -26.4287 66.2729 -27.8726 68.5068C-28.606 69.638 -28.8118 71.1415 -27.1964 71.7611C-25.3028 72.4867 -24.802 70.9897 -24.4521 69.558C-24.3275 69.0423 -24.2703 68.4995 -24.2594 67.9686C-24.2211 65.4082 -22.9725 63.2601 -21.8983 61.0594C-19.9352 57.0349 -15.5171 54.7455 -14.0395 50.477C-13.2578 48.2222 -10.6728 47.7896 -10.0815 45.4747C-9.83469 44.5161 -9.38016 44.6328 -5.60857 49.2298C-4.72509 50.305 -3.87004 51.4082 -2.98962 52.4859C-2.6549 52.8965 -2.13822 53.6731 -1.93049 53.6027C1.04873 52.5849 0.346811 54.8822 0.414868 56.2521C0.550964 58.8906 3.14712 57.1613 4.12717 58.4328C4.55781 58.9946 5.86851 58.7028 6.06232 57.9947C6.86413 55.1001 9.75156 53.5122 10.5095 50.6326C10.7247 50.6728 10.9374 50.7099 11.1501 50.747C11.9241 52.9646 13.286 52.3884 14.6359 51.4112C18.0121 48.9696 20.4447 45.4605 21.6994 41.8069C23.6474 36.1368 25.9956 30.5915 27.5182 24.7458C28.8908 19.4666 30.9974 14.3738 32.7967 9.20832C33.2258 7.97663 34.0663 7.07379 35.4553 7.44925C36.7836 7.81253 37.2949 8.89256 36.8955 10.2372C34.5102 18.3318 31.2808 26.1662 28.1336 33.9448C24.8487 42.0519 22.8427 54.506 25.6982 63.5138C27.5351 59.4081 29.0959 55.7877 28.4019 51.5996C27.199 52.2662 26.5705 51.7112 26.599 50.5375C26.6311 49.3051 27.0374 48.2033 28.7035 48.8734C29.5626 47.981 28.7855 47.0383 28.7708 46.1274C28.7003 42.2602 29.7016 41.4817 33.613 42.4481C34.5999 41.2402 32.3479 39.9099 33.8431 38.6387C36.7715 36.146 37.6625 32.394 38.1438 29.0369C38.5382 26.2616 40.3671 24.7731 41.0609 22.3201C42.4336 23.6059 41.4769 24.5666 41.2115 25.4894C38.5263 34.7931 35.1756 43.9262 33.9715 53.6125C34.1982 54.2367 34.4279 54.8583 34.657 55.4855C34.4303 54.8614 34.1982 54.2366 33.9722 53.6069C34.8429 52.6088 35.4408 51.2519 37.0719 51.2707C37.75 50.7669 38.4911 50.101 38.8862 51.4922C39.1718 52.5 39.5951 53.4072 40.2924 54.1808C41.7687 53.6142 41.1908 51.5585 42.6207 50.9531C43.7192 51.6631 44.686 52.3673 42.8828 53.4701C42.0038 54.0084 41.1935 54.664 40.3523 55.2683C40.8298 55.7113 40.8363 56.2131 40.5057 56.7573C40.6672 56.9014 40.8287 57.0455 40.9926 57.1928C43.0961 57.1416 44.3079 58.227 44.5006 60.3283C44.8884 60.4378 45.2761 60.5473 45.6639 60.6568C46.7833 61.127 47.6264 61.7784 47.4472 63.2455C46.0768 63.0071 45.9768 61.9519 45.6357 61.0901C44.8809 61.473 44.1236 61.8781 43.8589 60.5798C43.5638 60.2692 43.2663 59.9555 42.9718 59.6393C42.6764 61.2148 42.381 62.7903 42.0856 64.3658C41.8105 65.7831 44.1947 66.8602 42.5996 68.45C42.4937 69.4829 43.7505 70.2382 43.1582 71.6212C42.2267 70.9545 41.8786 69.8246 40.0741 70.7105C38.1559 71.6572 39.2617 73.1928 38.8364 73.4987C36.2533 75.3645 38.1767 76.1525 39.3799 77.3158C39.8123 77.7342 40.7314 78.2587 40.082 79.1653C39.5364 79.9226 38.8543 79.877 38.1566 79.337L38.057 79.3207C37.8908 79.4491 37.735 79.5842 37.5885 79.7373C37.2973 81.0458 37.8632 82.5231 36.7953 83.6744C37.5511 84.1728 37.1762 84.9655 37.2971 85.6289C38.3119 85.8485 39.3267 86.068 40.3415 86.2876C41.2504 86.2677 41.5839 85.5183 41.9831 84.914C45.086 80.233 46.8055 74.9744 48.3221 69.6404C48.6129 68.6162 48.5523 67.4076 49.9038 67.1287C51.0217 66.9005 52.1268 67.1946 52.8469 68.041C53.692 69.0305 53.1132 70.0883 52.5008 70.9905C51.5382 72.4122 50.5272 73.6851 51.664 75.6013C52.2241 76.5459 51.6911 77.9015 50.6396 78.3451C47.6858 79.5909 47.478 82.0795 47.3995 84.6976C47.38 85.3317 47.6401 86.1622 47.3312 86.5623C44.1939 90.6371 45.7362 94.8437 46.871 99.0175C47.4799 101.251 47.3462 103.427 47.0221 105.695C46.3948 110.168 47.2575 114.332 50.2293 118.293C53.9606 112.641 56.5813 106.695 60.4551 101.537C61.1145 102.016 61.2624 102.359 61.1891 102.844C61.1225 103.293 60.7116 103.8 61.2664 104.206C62.5606 104.166 62.527 101.364 64.2293 102.649C65.4745 103.586 64.3523 104.999 64.2131 106.18C63.9077 108.839 61.0064 111.163 63.198 114.184C63.3174 114.352 62.8225 115.236 62.43 115.449C61.1844 116.12 60.456 117.358 58.7452 117.652C57.0203 117.947 54.4719 120.134 55.008 121.321C56.4026 124.42 54.7265 126.13 53.3709 128.252C52.8872 129.011 52.315 129.855 53.0346 130.91C53.8143 132.059 54.7526 131.392 55.6151 131.282C56.558 131.159 57.4885 130.894 58.4035 130.615C58.8665 130.477 59.4968 129.743 59.7439 130.386C60.4992 132.365 62.9993 134.074 61.4095 136.481C59.2785 139.707 58.1117 143.584 54.7962 146.038C52.9994 147.364 51.3616 148.932 49.7732 150.511C48.9346 151.347 48.8288 152.532 49.7765 153.383C50.6574 154.177 51.5586 153.615 52.382 153.02C53.667 152.095 54.1257 150.597 55 149.388C55.6254 148.521 56.3719 147.602 57.5857 147.728C58.8249 147.853 58.7124 149.099 59.1375 149.914C60.285 152.116 60.0028 154.233 58.7467 156.22C55.7353 160.99 55.9813 167.038 52.5907 171.646C52.4684 171.81 52.442 172.049 52.3963 172.258C52.02 174.005 52.2495 175.544 54.1363 176.23C56.0752 176.929 57.2197 175.798 57.9325 174.191C58.6416 172.593 58.6469 170.865 58.6417 169.13C58.6302 165.723 59.4808 162.667 61.7951 159.948C63.9543 157.408 65.1151 154.144 67.9367 151.981C69.1921 151.019 70.8783 149.827 71.3903 148.509C72.3895 145.942 73.1087 147.383 73.8926 148.315C75.9565 150.785 77.8245 153.422 79.983 155.8C81.3713 157.327 81.4739 158.436 80.2535 160.176C77.7758 163.712 74.8521 167.204 73.4635 171.178C71.5061 176.831 68.477 182.015 67.041 187.867ZM-38.8274 271.704C-38.815 271.694 -38.8076 271.678 -38.7921 271.665C-38.8045 271.675 -38.8119 271.691 -38.8274 271.704ZM-29.5003 273.326L-29.5028 273.298C-29.5022 273.292 -29.5022 273.292 -29.5016 273.287C-29.5009 273.281 -29.5034 273.329 -29.5003 273.326C-29.4481 273.847 -29.4973 274.343 -29.7055 274.799C-29.4942 274.34 -29.445 273.845 -29.5003 273.326ZM-31.077 279.687C-30.4472 279.186 -30.1093 278.576 -30.0323 277.855C-30.1062 278.573 -30.4447 279.19 -31.077 279.687C-30.6043 280.326 -30.126 280.967 -29.6533 281.606C-30.126 280.967 -30.6012 280.324 -31.077 279.687ZM-8.77894 273.183C-8.77276 273.178 -8.77212 273.173 -8.76595 273.168C-8.77212 273.173 -8.77524 273.175 -8.77894 273.183ZM-8.47858 272.836C-8.45634 272.813 -8.43657 272.787 -8.41432 272.764C-8.43905 272.784 -8.45634 272.813 -8.47858 272.836ZM-35.1019 288.297L-35.0796 288.299C-35.0876 288.296 -35.0963 288.297 -35.1019 288.297ZM-90.3692 308.877C-90.0519 308.962 -89.7403 309.046 -89.423 309.131C-89.1955 309.136 -88.9679 309.141 -88.7435 309.148C-88.971 309.144 -89.1986 309.139 -89.423 309.131C-89.7378 309.049 -90.055 308.964 -90.3692 308.877C-90.3692 308.877 -90.3976 308.879 -90.431 308.876L-90.3692 308.877ZM-62.284 58.1801C-62.2858 58.2982 -62.2907 58.4187 -62.2925 58.5367C-62.2907 58.4187 -62.2882 58.2951 -62.284 58.1801ZM34.4099 66.1931C34.4099 66.1931 34.4068 66.1956 34.4093 66.1987C34.4124 66.1962 34.4099 66.1931 34.4099 66.1931ZM40.3171 55.2814C40.3201 55.2789 40.3201 55.2789 40.3232 55.2764C40.3207 55.2734 40.3201 55.2789 40.3171 55.2814ZM39.1023 67.2018C38.4593 67.4391 37.9198 67.9635 37.244 68.1156C37.9198 67.9635 38.4569 67.436 39.1023 67.2018ZM48.2456 162.435C48.6687 161.512 49.3571 160.711 50.262 160.015C49.3571 160.711 48.6662 161.509 48.2456 162.435ZM47.8224 165.598C47.8199 165.595 47.8199 165.595 47.8224 165.598C47.8094 165.614 47.7958 165.635 47.7853 165.653C47.7989 165.632 47.8094 165.614 47.8224 165.598C47.8255 165.621 47.8236 165.638 47.8267 165.66C47.8236 165.638 47.823 165.618 47.8224 165.598ZM-100.517 296.344C-100.588 296.381 -100.66 296.419 -100.731 296.45C-100.66 296.419 -100.586 296.384 -100.517 296.344ZM-100.978 296.547C-101.04 296.566 -101.101 296.585 -101.161 296.592C-101.103 296.582 -101.04 296.566 -100.978 296.547ZM-99.8842 295.821C-99.8867 295.843 -99.8861 295.863 -99.8885 295.886C-99.8861 295.863 -99.8836 295.841 -99.8842 295.821ZM-101.438 296.602C-101.488 296.596 -101.535 296.594 -101.585 296.583C-101.535 296.594 -101.485 296.6 -101.438 296.602ZM-101.666 296.552C-101.707 296.539 -101.748 296.526 -101.785 296.505C-101.744 296.524 -101.704 296.537 -101.666 296.552ZM-101.897 296.428C-101.926 296.411 -101.955 296.394 -101.983 296.366C-101.955 296.394 -101.923 296.409 -101.897 296.428Z" fill="white"/>
</svg>
