<svg width="71" height="589" viewBox="0 0 71 589" fill="none" xmlns="http://www.w3.org/2000/svg">
<path fill-rule="evenodd" clip-rule="evenodd" d="M11.3007 201.173C8.67084 207.579 11.8928 215.243 7.97057 221.677C7.60581 222.267 7.77054 223.691 8.25409 224.206C10.9885 227.153 9.30234 229.895 8.35414 232.873C7.73059 234.841 6.72635 238.01 10.1557 238.236C13.7554 238.47 12.0244 240.18 11.1613 240.994C4.85895 246.849 6.88393 255.734 3.2788 262.715C1.84565 265.495 1.27745 270.863 2.34941 274.013C3.80694 278.284 1.70634 280.269 0.176813 283.116C-0.230279 283.874 0.145983 285.233 0.499785 286.187C1.34559 288.456 3.02528 290.175 4.69815 291.868L4.80212 292.325C5.157 294.027 6.34218 296.776 5.72782 297.266C1.18202 300.886 4.62456 305.843 3.29917 309.961C2.79225 311.541 3.7396 315.075 6.6418 313.659C9.20355 312.404 12.9029 311.418 13.4298 307.807C14.8671 297.906 20.2296 289.04 21.004 279.03C21.3399 274.716 24.7224 272.887 27.0647 270.23C27.8738 269.316 28.7664 270.245 29.479 271.553C32.4086 276.953 30.8772 281.478 27.3905 285.847C25.8577 287.766 24.4731 289.758 23.8012 292.218C20.9617 302.634 21.79 313.063 23.5047 323.508C24.0607 323.942 24.6184 324.383 25.1745 324.818C23.4262 328.075 21.389 331.309 24.4724 334.896C25.1427 335.677 24.7212 336.034 23.9952 336.386C21.0821 337.811 21.7238 340.196 22.3745 342.565C22.8105 344.144 23.0292 351.29 22.7134 353.275C22.6573 353.614 22.4949 354.157 22.6408 354.272C26.4737 357.197 22.5138 360.321 22.8984 363.321C22.504 364.62 23.0002 365.751 23.5608 366.872L23.3845 366.967C23.1593 367.055 22.934 367.143 22.7088 367.231C22.9642 367.229 23.2258 367.226 23.4812 367.223C23.7034 367.446 23.8428 367.711 23.9058 368.017C24.1542 369.6 24.3946 371.178 24.643 372.76C24.3985 376.147 22.1243 379.823 26.4489 382.5C27.7856 383.328 26.8177 384.649 25.898 385.552C24.339 386.111 23.2852 385.084 22.0778 384.409C21.0858 383.857 21.9342 381.626 19.8975 382.112C19.0816 382.307 18.7642 382.824 18.9146 383.625C19.191 385.113 19.7924 385.838 21.6028 386.006C22.7149 386.108 23.4187 387.829 25.0114 388.46C26.3467 388.986 27.835 392.528 25.8279 393.916C23.009 395.861 24.5917 398.387 23.1674 400.754C25.5349 400.791 26.88 396.25 28.8286 400.171C30.1635 401.068 31.5997 402.287 31.8546 399.409C31.8563 399.416 31.8625 399.414 31.8643 399.42C36.2158 402.568 36.811 407.309 35.233 411.563C31.8016 420.794 29.8721 430.37 27.1292 439.73C23.6997 451.445 19.7259 463.065 15.9118 474.703C14.9962 477.504 14.7835 480.438 15.5894 483.377C18.3413 478.312 19.1531 472.677 21.8592 467.765C26.6693 467.272 30.9654 468.408 34.3361 472.01C35.3323 473.073 36.1585 474.155 37.7425 473.738C38.0641 473.657 38.3303 472.952 38.4202 472.489C38.8289 470.499 37.3873 469.706 35.9712 469.007C34.8134 468.439 32.9284 468.79 32.9677 466.779C33.0093 464.801 34.6799 464.381 36.1755 463.886C36.3059 464.168 36.4441 464.453 36.5807 464.733C36.7108 464.616 36.8329 464.496 36.9629 464.379C36.7026 464.215 36.4422 464.05 36.1818 463.885C31.1821 461.425 33.4301 457.703 34.2766 454.3C36.0912 453.443 35.8972 457.214 37.4839 455.543C38.5674 454.4 37.4671 453.103 36.471 451.966C34.5676 449.796 31.0708 450.511 29.4973 447.895C31.6467 442.125 32.3829 435.567 38.4256 431.978C41.6423 431.521 44.785 431.535 47.6544 433.368C46.6719 435.056 46.8058 436.515 48.1727 438.049C50.2754 440.407 51.3955 437.045 53.1003 437.37C53.2129 437.709 53.3272 438.056 53.4398 438.395C54.6872 440.333 53.3297 441.88 52.1968 442.842C49.5128 445.134 50.0744 447.002 52.312 449.013C50.0819 450.374 48.9352 452.127 51.1367 454.303C53.5746 456.705 52.7597 459.108 51.613 461.629C49.6147 462.603 46.9369 463.506 48.6505 466.341C49.4372 467.649 51.8304 469.019 53.1491 468.741C55.6926 468.211 54.3987 465.31 54.9383 463.479C55.1184 462.878 54.2943 461.978 53.9255 461.216C56.2648 458.795 58.5994 456.382 60.9387 453.962C60.4716 457.571 57.0793 460.998 60.2639 464.833C58.3782 465.454 57.2418 467.096 57.7507 468.695C58.5428 471.188 59.7721 466.691 61.0777 468.545C61.2969 468.856 62.0073 468.818 62.4923 468.942C62.893 470.342 62.1095 471.349 61.3482 472.364C57.2331 474.15 60.3928 477.224 60.5521 480.313C58.5748 478.688 57.1067 476.063 55.5777 479.631C53.1875 479.56 53.215 477.357 52.3491 475.956C52.5851 474.545 54.844 473.439 53.3443 471.887C52.4922 471.007 50.8039 470.173 49.7365 470.41C46.2112 471.193 48.8345 474.103 48.1911 475.948C45.2004 479.59 49.74 481.373 50.2086 484.162C51.205 483.541 52.0944 481.386 53.289 483.055C55.4767 486.097 57.0002 483.575 58.7948 482.892C59.8591 482.892 60.9251 482.898 61.9894 482.899C60.4741 490.53 59.5517 498.311 56.8703 505.667C55.5431 509.308 55.8776 512.793 57.0519 516.319C55.929 518.234 57.6229 519.41 58.247 520.864C54.2408 520.572 55.1797 523.381 54.8899 525.784C54.5196 528.881 56.355 527.11 57.377 527.202C58.5189 529.222 60.7002 529.639 62.5808 530.313C64.4409 530.986 65.017 532.015 64.6422 533.807C63.6031 537.74 65.1615 541.391 65.9314 545.115C65.9683 545.3 66.6758 545.35 67.1853 545.441C67.0415 544.961 66.8994 544.488 66.7618 544.007C67.3956 544.158 67.9649 544.319 67.9561 544.659C67.9649 544.319 67.3876 544.153 66.7618 544.007C66.9056 544.486 67.0478 544.959 67.1853 545.441C67.1904 545.459 67.1955 545.478 67.1989 545.491L67.3688 545.471C66.5441 557.031 62.5281 568.05 60.4341 579.92C62.5006 579.271 62.7247 578.435 63.0373 577.603C65.2008 571.835 68.0016 566.231 68.4223 559.975C68.6353 556.819 71.6235 555.448 72.1053 551.942C72.8182 546.711 74.0809 540.454 80.3281 537.84C82.2259 541.129 82.194 544.579 80.5752 547.841C79.3938 550.21 81.1586 551.003 82.2813 552.159C83.1687 553.07 84.2651 552.792 85.0548 551.931C86.1731 550.717 87.152 549.239 85.6043 547.808C82.7756 545.182 84.7882 542.749 85.6465 540.233C88.8494 539.254 90.773 537.559 89.1798 533.905C91.9649 534.932 96.1298 538.359 93.602 530.944C93.0048 529.194 95.2077 527.659 97.3205 527.428C99.0274 527.24 100.751 527.263 102.47 527.193C102.386 528.617 101.297 530.832 104.17 530.375C107.095 529.909 108.077 527.204 108.126 524.834C108.17 522.714 106.398 524.199 105.383 524.381L105.123 524.068C104.727 522.734 104.329 521.394 103.932 520.061C107.93 517.768 103.975 515.833 103.652 513.725C105.023 512.922 106.394 512.118 107.766 511.32C107.824 512.894 107.883 514.474 107.947 516.046C107.873 516.47 107.603 517.036 107.778 517.284C108.257 517.956 108.853 517.719 109.341 517.162C111.847 513.572 110.199 508.82 112.676 505.224C119.297 503.687 115.944 499.951 114.57 496.654C115.37 494.915 116.049 493.1 116.994 491.449C118.393 489.015 120.158 486.164 123.364 487.576C126.587 489.003 124.516 492.138 124.371 494.575C124.286 495.972 123.596 496.631 122.25 497.105C121.04 497.535 120.073 499.206 121.152 500.003C124.552 502.527 123.749 506.113 124.241 509.434C124.394 510.491 124.638 512.828 126.567 510.432C128.03 510.909 128.265 512.294 128.805 513.46C127.96 516.869 126.958 520.246 126.291 523.687C124.139 534.751 119.349 545.153 118.148 556.443C116.943 560.112 115.94 563.806 116.508 567.753C118.068 564.796 119.232 561.766 119.144 558.395C120.49 557.053 124.275 556.583 122.68 554.208C120.236 550.569 122.535 547.95 123.153 544.9C124.595 537.813 128.55 531.774 131.316 525.25C132.983 521.322 134.573 517.583 139.513 517.048C140.187 517.72 140.86 518.386 141.541 519.056C135.934 541.815 128.434 564.126 124.238 588.132C126.492 586.738 126.528 585.408 126.828 584.256C129.711 573.181 132.651 562.118 135.389 551.009C139.569 534.025 145.968 517.724 150.722 500.921C150.907 500.265 151.512 499.69 151.585 499.043C152.288 492.906 158.082 489.343 158.217 482.134C158.442 470.354 165.544 459.883 168.741 448.528C170.726 441.483 173.963 434.608 174.714 427.461C175.333 421.514 177.6 422.594 181.205 423.662C179.698 427.931 178.436 432.133 176.741 436.156C172.744 445.662 172.141 456.002 169.145 465.794C166.449 474.609 164.66 483.858 165.98 493.298C163.799 497.117 164.845 501.56 163.623 505.563C166.624 507.953 163.185 515.125 170.269 514.573C170.335 514.568 170.707 515.888 170.572 516.504C170.189 518.245 171.435 519.085 172.37 520.07C176.313 524.244 180.288 528.383 184.245 532.533C197.121 546.052 210.002 559.562 222.918 573.103C224.529 571.473 224.476 569.615 224.86 567.955C240.873 499.835 256.863 431.702 272.849 363.577C290.18 289.697 307.501 215.807 324.832 141.928C330.866 116.183 336.837 90.4289 343.03 64.7219C344.124 60.1747 343.066 59.479 338.886 60.8513C334.202 62.3804 329.36 63.4478 324.591 64.7107C322.754 64.247 321.409 64.7003 320.869 66.6789C317.681 66.7711 314.576 67.3393 311.568 68.3659C309.435 69.0939 306.922 68.942 305.242 70.6918C303.317 72.7036 305.165 75.0164 305.445 77.2099C301.911 77.0191 303.451 73.5695 301.887 72.1023C297.743 79.0817 296.602 83.1096 297.045 88.5318C297.061 88.7632 296.624 89.0371 296.395 89.2877C296.4 89.2797 296.465 89.1475 296.465 89.1475C296.422 89.1863 296.387 89.209 296.349 89.2398C296.366 89.2552 296.378 89.2723 296.395 89.2877C295.364 91.0699 299.937 95.5245 293.755 94.8615C293.762 95.3579 293.586 95.9512 293.797 96.3315C296.542 101.175 291.295 107.491 298.138 111.726C293.704 112.042 292.439 109.793 290.926 107.895C290.302 107.108 289.807 105.761 288.556 106.31C287.388 106.823 287.579 108.071 288.177 108.979C289.681 111.291 287.935 112.055 286.412 112.968C286.412 112.968 286.005 112.735 286.011 112.733C285.64 111.79 286.959 109.728 284.799 110.059C282.457 110.413 282.492 113.292 283.007 114.345C284.79 118.029 282.762 119.611 278.592 121.317C282.676 121.87 283.188 123.953 282.882 126.023C282.545 128.277 280.77 128.241 278.85 127.793C276.743 127.302 276.798 129.038 276.527 130.398C276.187 132.093 277.688 133.652 276.921 135.362C276.986 135.378 277.054 135.407 277.119 135.423C277.052 135.4 276.986 135.378 276.921 135.362L276.913 135.358C273.945 135.121 274.442 137.221 274.655 138.894C274.96 141.33 275.591 143.725 275.882 146.158C276.096 147.911 275.278 150.033 273.405 148.421C268.096 143.856 268.783 149.408 268.859 151.32C269.031 155.671 270.102 159.98 270.807 164.307C270.41 164.435 270.01 164.571 269.613 164.699C266.253 166.536 268.287 171.687 267.777 171.819C261.172 173.514 266.192 180.46 262.36 183.111C264.314 189.705 259.519 194.834 257.703 200.319C255.7 206.379 253.519 212.333 252.436 218.655C250.994 227.075 250.872 235.621 250.21 244.159C248.818 243.75 249.093 241.439 247.491 241.888C246.089 242.283 246.303 243.888 246.112 245.044C245.849 246.604 245.776 248.193 245.564 249.766C244.583 256.91 242.766 261.997 239.419 265.789C240.62 255.118 239.826 245.259 243.041 235.656C247.78 221.524 249.544 206.706 252.345 192.131C252.564 190.981 252.646 189.375 252.029 188.567C249.967 185.888 250.864 183.563 251.889 180.819C252.789 178.406 254.031 175.071 249.271 174.756C249.108 174.255 248.945 173.753 248.781 173.252C252.32 169.866 253.499 165.558 253.831 160.834C253.936 159.31 254.64 157.812 255.162 156.337C257.847 148.771 259.529 141.161 256.354 133.296C261.34 133.227 261.888 130.66 260.036 126.746C259.134 125.165 258.235 123.592 256.925 121.301C255.238 126.245 253.18 129.923 252.937 134.279C252.816 136.487 251.634 138.681 248.888 137.946C245.67 137.083 246.454 134.614 247.374 132.377C247.708 131.572 248.157 130.797 248.657 130.082C251.084 126.647 251.504 122.593 252.207 118.637C253.494 111.404 249.839 104.107 252.007 97.0184C253.151 93.2726 250.135 90.2065 251.59 86.5648C252.19 85.0547 251.473 84.7714 242.013 87.2358C239.798 87.8109 237.594 88.4505 235.381 89.0319C234.539 89.2542 233.101 89.7866 232.893 89.4929C229.92 85.2703 228.629 88.9954 227.213 90.7477C224.478 94.1177 222.702 89.3203 220.169 90.0628C219.054 90.3932 217.594 88.7424 218.022 87.6159C219.759 83.0019 217.459 78.1112 219.239 73.5594C218.914 73.4052 218.596 73.2494 218.277 73.0936C215.102 75.2902 213.851 73.2127 213.003 70.6146C210.88 64.12 211.044 57.1182 212.913 51.0605C215.813 41.6582 218.06 32.036 221.695 22.811C224.981 14.4823 227.111 5.69338 229.72 -2.89573C230.342 -4.94387 230.099 -6.9522 227.89 -7.79289C225.773 -8.59138 224.049 -7.65109 223.278 -5.48164C218.613 7.55933 215.321 21.0688 211.974 34.4248C208.492 48.3496 199.103 66.81 186.591 76.0106C188.124 68.7915 189.554 62.4826 194.53 57.5941C195.483 59.6383 196.855 59.5077 197.953 57.9228C199.103 56.2564 199.63 54.4026 196.768 53.6856C196.49 51.6733 198.435 51.1714 199.336 49.9768C203.173 44.913 202.596 42.9147 196.463 40.4265C196.321 37.8722 200.601 38.2779 199.845 35.1497C198.366 29.0187 200.814 23.1809 203.424 18.2621C205.586 14.199 204.596 10.4608 206.049 6.53684C202.98 6.91983 203.322 9.11688 202.781 10.5973C197.344 25.5318 192.956 40.8815 185.181 54.896C184.276 55.5058 183.369 56.1093 182.458 56.7208C183.363 56.111 184.276 55.5058 185.186 54.888C184.995 52.7241 185.514 50.347 183.328 48.7995C182.915 47.4774 182.575 45.8794 180.703 47.3446C179.349 48.4066 177.908 49.2023 176.233 49.5568C174.82 47.3817 177.577 45.211 176.263 43.0291C174.116 42.9123 172.15 42.9148 173.479 46.1164C174.126 47.6782 174.568 49.3292 175.101 50.9422C174.037 51.0696 173.543 51.7293 173.456 52.77C173.102 52.8057 172.748 52.8413 172.387 52.8786C169.642 50.7829 166.981 51.055 164.691 53.6576C164.07 53.4292 163.449 53.2007 162.828 52.9723C160.885 52.5171 159.135 52.5687 157.953 54.6883C160.004 55.693 161.159 54.3891 162.446 53.5744C163.078 54.8102 163.692 56.0777 165.301 54.61C165.993 54.4824 166.692 54.3529 167.39 54.2172C166.257 56.5927 165.125 58.9682 163.992 61.3436C162.986 63.4895 158.776 62.6205 159.357 66.2678C158.497 67.7406 156.096 67.5313 155.545 69.9374C157.428 69.9508 158.984 68.7869 160.524 71.702C162.157 74.8075 159.201 75.7793 159.47 76.5952C161.096 81.5612 157.778 80.7527 155.053 81.1365C154.074 81.2748 152.345 81.0848 152.331 82.9139C152.322 84.445 153.273 85.0419 154.723 84.998L154.871 85.0722C154.967 85.4029 155.043 85.7324 155.09 86.0767C154.21 88.0939 152.029 89.5087 152.333 92.0659C150.847 91.9987 150.577 93.4121 149.775 94.1758C148.214 93.4889 146.653 92.802 145.092 92.1151C143.904 91.2125 144.186 89.8965 144.241 88.7098C144.648 79.5069 147.453 70.8711 150.601 62.3309C151.206 60.6915 152.456 59.1461 150.93 57.473C149.666 56.0926 147.913 55.4176 146.137 55.8466C144.056 56.3448 143.802 58.3066 143.742 60.0941C143.645 62.9087 143.756 65.5724 140.391 67.0194C138.733 67.7329 138.129 70.0455 139.097 71.648C141.816 76.1485 139.683 79.6513 137.253 83.2011C136.665 84.0614 135.516 84.9127 135.539 85.7415C135.764 94.1731 129.643 98.2685 124.096 102.713C121.125 105.09 119.197 108.106 117.432 111.428C113.936 117.968 108.76 122.662 100.977 125.054C101.49 113.957 103.763 103.54 103.608 92.9612C102.268 92.9619 101.74 93.2739 101.368 93.9878C101.022 94.6476 101.077 95.717 99.9467 95.7212C98.266 94.4204 101.022 90.7345 97.5171 90.7986C94.9558 90.8416 95.0794 93.7983 94.1208 95.5002C91.9537 99.3221 93.5593 105.203 87.7231 107.099C87.4021 107.207 87.2041 108.857 87.5188 109.519C88.5249 111.609 88.2938 113.955 90.2828 115.994C92.2894 118.048 93.558 123.408 91.697 124.466C86.8452 127.233 87.4166 131.119 87.1635 135.242C87.0723 136.715 87.015 138.387 85.038 139.093C82.8905 139.865 82.2895 138.076 81.2493 137.099C80.1158 136.026 79.1363 134.777 78.1899 133.526C77.7087 132.896 77.5818 131.314 76.631 131.929C73.7118 133.828 68.7358 133.685 68.5188 138.412C68.2274 144.748 66.0252 151.017 68.0556 157.469C69.1597 160.961 69.818 164.621 70.3999 168.248C70.7056 170.165 69.6992 171.839 67.616 172.055C65.6776 172.259 65.0234 170.646 64.5054 169.062C63.6933 166.596 64.5345 164.165 64.5428 161.718C64.551 159.964 64.4483 158.026 62.7139 157.022C60.9458 155.994 59.8892 157.757 58.5359 158.428C54.8803 160.243 53.2057 163.325 52.9518 167.172C52.3365 176.405 46.1557 184.194 46.201 193.577C46.2047 193.912 46.0083 194.255 45.8667 194.577C44.6759 197.258 42.881 199.079 39.7105 198.17C36.4573 197.229 36.0319 194.624 36.6397 191.805C37.2445 189.001 38.9098 186.703 40.5957 184.406C43.9092 179.895 45.7363 175.02 45.2936 169.18C44.8825 163.729 46.4992 158.279 44.8443 152.688C44.1075 150.201 43.0202 146.994 43.6161 144.751C44.7723 140.382 42.4227 141.6 40.4789 142.082C35.3462 143.369 30.3117 145.068 25.1415 146.144C21.8192 146.831 20.6095 148.204 20.5468 151.69C20.4173 158.77 20.9213 166.223 18.9201 172.835C16.0501 182.223 15.057 192.022 11.3007 201.173ZM70.823 414.482C70.8162 414.456 70.8219 414.428 70.8134 414.397C70.8202 414.422 70.8145 414.45 70.823 414.482ZM56.8598 407.643L56.8906 407.608C56.8952 407.6 56.8952 407.6 56.8998 407.592C56.9043 407.584 56.8615 407.65 56.8598 407.643C56.2864 408.284 55.8719 408.99 55.7071 409.795C55.8702 408.983 56.2847 408.278 56.8598 407.643ZM52.7985 417.604C52.4461 416.333 52.5884 415.196 53.1839 414.165C52.5867 415.19 52.4398 416.334 52.7985 417.604C51.5514 417.997 50.2964 418.385 49.0494 418.778C50.2964 418.385 51.5497 417.991 52.7985 417.604ZM29.4662 387.478C29.4627 387.465 29.4673 387.457 29.4639 387.445C29.4673 387.457 29.469 387.464 29.4662 387.478ZM29.4035 386.727C29.3961 386.675 29.395 386.622 29.3877 386.57C29.4013 386.62 29.3961 386.675 29.4035 386.727ZM49.813 432.909L49.7811 432.891C49.7953 432.894 49.805 432.905 49.813 432.909ZM103.327 513.497C102.823 513.304 102.327 513.116 101.823 512.923C101.516 512.71 101.209 512.497 100.904 512.29C101.211 512.503 101.518 512.716 101.823 512.923C102.321 513.117 102.825 513.31 103.327 513.497C103.327 513.497 103.362 513.528 103.41 513.555L103.327 513.497ZM308.653 153.749C308.541 153.907 308.431 154.072 308.319 154.23C308.431 154.072 308.548 153.905 308.653 153.749ZM172.422 71.1678C172.422 71.1678 172.424 71.1741 172.418 71.1758C172.416 71.1695 172.422 71.1678 172.422 71.1678ZM175.135 50.9935C175.133 50.9872 175.133 50.9872 175.131 50.9809C175.138 50.9792 175.133 50.9872 175.135 50.9935ZM165.211 67.9828C165.836 68.9176 166.045 70.1335 166.796 70.9868C166.045 70.1335 165.842 68.9158 165.211 67.9828ZM60.8896 185.542C61.2204 183.91 61.081 182.183 60.5523 180.387C61.081 182.183 61.2267 183.908 60.8896 185.542ZM58.39 190.148C58.3963 190.147 58.3963 190.147 58.39 190.148C58.3923 190.181 58.39 190.222 58.386 190.257C58.3883 190.216 58.3923 190.181 58.39 190.148C58.3638 190.176 58.3501 190.2 58.3238 190.227C58.3501 190.2 58.3701 190.174 58.39 190.148ZM128.94 506.648C128.999 506.767 129.058 506.885 129.122 506.996C129.058 506.885 128.993 506.769 128.94 506.648ZM129.356 507.363C129.419 507.447 129.483 507.531 129.555 507.599C129.489 507.529 129.419 507.447 129.356 507.363ZM128.605 505.345C128.587 505.377 128.567 505.402 128.549 505.434C128.567 505.402 128.586 505.371 128.605 505.345ZM129.914 507.878C129.986 507.92 130.051 507.962 130.128 507.995C130.051 507.962 129.979 507.921 129.914 507.878ZM130.266 508.032C130.332 508.054 130.399 508.077 130.468 508.085C130.397 508.07 130.331 508.048 130.266 508.032ZM130.692 508.091C130.748 508.096 130.803 508.101 130.867 508.091C130.803 508.101 130.746 508.09 130.692 508.091Z" fill="white"/>
</svg>
