<svg width="164" height="314" viewBox="0 0 164 314" fill="none" xmlns="http://www.w3.org/2000/svg">
<path fill-rule="evenodd" clip-rule="evenodd" d="M8.93985 189.894C9.27703 196.482 13.029 205.613 12.6941 211.978C12.661 212.562 13.1298 214.173 13.5223 214.839C15.7515 218.643 15.601 221.353 15.9022 224.47C16.1027 226.53 16.4255 229.847 18.2894 230.771C20.245 231.736 19.7939 233.292 19.5585 234.026C17.8168 239.283 21.2672 249.533 21.246 256.567C21.239 259.37 22.3813 265.21 23.7908 268.914C25.704 273.936 25.1325 275.726 25.0927 278.583C25.082 279.343 25.6448 280.924 26.0871 282.052C27.141 284.733 28.4857 286.969 29.82 289.175L29.9973 289.702C30.6408 291.659 32.0021 294.94 31.8107 295.363C30.3924 298.486 33.5336 304.658 33.9425 308.965C34.0999 310.617 35.547 314.722 36.693 313.722C37.7029 312.832 39.3835 312.465 38.6908 308.563C36.7883 297.866 37.2274 289.085 34.9469 278.137C33.9652 273.419 35.2528 272.054 35.7709 269.567C35.9511 268.712 36.6699 269.918 37.3959 271.508C40.3861 278.071 40.7957 282.788 40.1355 286.949C39.8447 288.776 39.6517 290.715 39.9587 293.31C41.2624 304.304 44.4982 316.032 48.2042 327.951C48.6133 328.542 49.025 329.14 49.4341 329.732C49.3893 333 49.1865 336.187 51.7708 340.77C52.333 341.767 52.2072 342.08 51.92 342.328C50.7709 343.337 51.7486 346.108 52.7268 348.862C53.3799 350.699 55.4139 358.667 55.7809 360.806C55.8422 361.171 55.9025 361.741 56.0102 361.897C58.8109 365.892 57.5675 368.58 58.5753 371.982C58.7168 373.346 59.2814 374.698 59.877 376.05L59.8099 376.121C59.7152 376.175 59.6204 376.228 59.5256 376.282C59.6593 376.33 59.7959 376.377 59.9296 376.425C60.1062 376.715 60.2507 377.036 60.3661 377.388C60.9216 379.192 61.4717 380.989 62.0272 382.793C62.808 386.5 62.5992 390.131 65.5918 393.947C66.5171 395.128 66.3628 396.403 66.1217 397.224C65.4519 397.538 64.6221 396.192 63.8059 395.207C63.1361 394.4 62.9832 392.093 62.0428 392.232C61.6662 392.288 61.6382 392.8 61.9323 393.718C62.477 395.421 62.988 396.344 63.9851 396.885C64.5971 397.216 65.4294 399.263 66.4364 400.275C67.2797 401.12 69.0134 405.34 68.3305 406.485C67.3705 408.089 68.881 411.201 68.7677 413.547C70.0224 414.052 69.5103 409.28 71.5881 414.011C72.5307 415.267 73.6132 416.901 72.9746 413.76C72.9771 413.767 72.98 413.766 72.9826 413.774C76.1158 418.118 77.7018 423.492 78.0144 427.901C78.6884 437.463 80.2451 447.704 81.3159 457.546C82.6581 469.864 83.6887 481.971 84.8078 494.129C85.0786 497.056 85.7544 500.267 86.9675 503.685C87.0545 498.608 85.9682 492.518 86.0724 487.602C88.4693 487.999 91.0332 490.101 93.7729 494.757C94.5821 496.131 95.307 497.493 96.0279 497.341C96.1753 497.315 96.1259 496.585 96.0491 496.09C95.7296 493.963 94.7585 492.8 93.8262 491.747C93.065 490.89 92.168 490.91 91.6487 488.687C91.1395 486.502 91.9051 486.364 92.5588 486.109C92.7028 486.446 92.8523 486.79 92.9991 487.127C93.0363 487.023 93.0681 486.914 93.1053 486.81C92.9241 486.576 92.7429 486.342 92.5617 486.108C89.2723 482.4 89.4548 478.713 88.9864 475.106C89.7105 474.512 90.6208 478.655 91.0066 477.113C91.2694 476.058 90.3426 474.404 89.5136 472.948C87.9301 470.168 86.2834 470.275 84.7535 467.065C84.3344 461.088 82.9607 453.96 85.1744 451.165C86.7431 451.289 88.3995 451.922 90.4005 454.517C90.3371 456.197 90.7992 457.841 91.9299 459.81C93.6687 462.838 93.3549 459.329 94.3385 460.023C94.4889 460.422 94.642 460.828 94.7924 461.227C95.9685 463.62 95.6702 465.07 95.3326 465.914C94.5368 467.93 95.3336 470.111 97.0503 472.781C96.243 473.852 96.1107 475.571 97.8526 478.416C99.7794 481.558 99.9962 484.063 100.07 486.634C99.2809 487.322 98.1154 487.799 99.7774 491.278C100.542 492.883 102.169 494.871 102.787 494.822C103.983 494.733 102.523 491.262 102.316 489.338C102.249 488.707 101.574 487.546 101.175 486.629C101.755 484.404 102.335 482.186 102.915 479.961C103.639 483.871 102.775 487.007 105.479 491.884C104.654 492.202 104.498 493.801 105.195 495.674C106.28 498.593 105.72 493.848 106.904 496.16C107.103 496.548 107.466 496.645 107.754 496.878C108.341 498.508 108.199 499.472 108.072 500.449C106.387 501.622 108.874 505.65 109.787 509.107C108.311 506.917 106.835 503.719 106.988 507.375C105.713 506.828 105.136 504.39 104.304 502.666C104.049 501.148 104.94 500.364 103.735 498.349C103.051 497.207 101.939 495.95 101.441 496.003C99.7976 496.18 101.958 499.922 102.116 501.842C101.521 505.294 104.387 508.162 105.382 511.346C105.739 510.853 105.628 508.638 106.704 510.723C108.671 514.526 108.795 512.027 109.556 511.622C110.115 511.831 110.678 512.047 111.237 512.256C112.49 520.422 114.094 528.869 114.659 536.501C114.938 540.278 116.05 544.209 117.614 548.349C117.538 550.253 118.745 551.889 119.463 553.623C117.278 552.514 118.526 555.814 119.019 558.421C119.656 561.783 120.145 560.179 120.707 560.482C121.85 562.946 123.109 563.836 124.279 564.952C125.438 566.064 126.017 567.317 126.301 569.231C126.811 573.389 128.61 577.743 130.015 582.024C130.084 582.237 130.47 582.431 130.762 582.631C130.558 582.071 130.356 581.519 130.154 580.958C130.528 581.25 130.871 581.541 130.957 581.915C130.871 581.541 130.523 581.243 130.154 580.958C130.359 581.518 130.56 582.071 130.762 582.631C130.77 582.653 130.777 582.675 130.783 582.69L130.867 582.702C133.537 595.358 134.384 606.79 136.47 619.543C137.382 619.228 137.276 618.346 137.216 617.484C136.806 611.512 136.774 605.847 135.315 598.992C134.58 595.534 135.783 594.599 135.095 590.807C134.065 585.145 133.049 578.454 135.632 576.781C137.513 580.801 138.423 584.62 138.447 587.92C138.462 590.315 139.603 591.541 140.504 593.043C141.215 594.227 141.717 594.134 141.901 593.334C142.163 592.208 142.281 590.76 141.083 588.869C138.89 585.403 139.295 583.1 139.071 580.478C140.492 580.021 141.049 578.519 139.23 574.153C140.97 575.839 144.08 580.456 140.76 571.738C139.976 569.68 140.723 568.409 141.771 568.568C142.619 568.694 143.531 569.058 144.416 569.317C144.754 570.88 144.777 573.123 146.164 573.179C147.577 573.237 147.368 570.43 146.757 567.811C146.211 565.468 145.678 566.768 145.193 566.77L144.972 566.372C144.405 564.815 143.836 563.251 143.27 561.695C144.756 559.937 142.157 557.015 141.421 554.614C141.926 553.992 142.432 553.369 142.939 552.754C143.392 554.511 143.847 556.275 144.303 558.031C144.378 558.486 144.388 559.06 144.547 559.37C144.979 560.209 145.229 560.064 145.336 559.542C145.69 556.051 143.547 550.459 143.884 546.957C146.953 546.551 144.187 541.751 142.579 537.825C142.532 536.053 142.402 534.174 142.456 532.528C142.538 530.103 142.7 527.288 144.765 529.482C146.843 531.697 146.596 534.768 147.174 537.442C147.505 538.975 147.319 539.57 146.738 539.832C146.217 540.071 146.157 541.734 146.939 542.83C149.405 546.296 149.945 550.115 151.096 553.894C151.459 555.096 152.216 557.736 152.586 555.457C153.484 556.274 153.979 557.855 154.576 559.254C155.047 562.868 155.427 566.417 156 570.102C157.84 581.95 158.114 592.545 160.514 604.83C160.865 608.661 161.33 612.561 162.688 617.05C162.715 614.077 162.513 610.945 161.561 607.19C161.909 605.965 163.773 606.186 162.297 603.24C160.034 598.725 160.54 596.272 160.046 593.01C158.901 585.435 159.36 579.514 159.063 572.822C158.884 568.792 158.716 564.958 161.17 565.334C161.705 566.211 162.238 567.081 162.776 567.958C165.939 592.097 167.986 615.368 172.225 641.166C173.036 640.062 172.698 638.594 172.546 637.375C171.088 625.66 169.663 613.968 168.12 602.185C165.758 584.171 164.746 567.35 162.734 549.649C162.655 548.957 162.819 548.438 162.684 547.736C161.405 541.067 163.495 538.253 161.631 530.285C158.586 517.266 159.509 507.047 158.141 495.082C157.293 487.658 157.15 480.67 155.625 472.891C154.354 466.418 155.837 468.061 158.018 469.952C158.372 474.39 158.837 478.802 159.026 482.932C159.477 492.689 161.936 504.037 162.99 514.309C163.939 523.555 165.481 533.46 168.71 544.188C168.589 547.995 170.332 553.128 170.764 557.327C172.984 560.566 173.101 567.844 176.678 568.622C176.711 568.63 177.262 570.166 177.356 570.823C177.622 572.678 178.502 573.854 179.258 575.13C182.453 580.532 185.654 585.902 188.849 591.281C199.25 608.798 209.65 626.307 220.078 643.857C220.487 642.365 219.96 640.295 219.716 638.529C209.847 566.129 199.961 493.709 190.074 421.298C179.351 342.769 168.619 264.227 157.895 185.698C154.156 158.333 150.38 130.944 146.734 103.651C146.088 98.8226 145.345 97.8436 143.516 98.5453C141.464 99.3224 139.204 99.5561 137.035 100.021C135.945 99.1466 135.359 99.3853 135.607 101.474C133.955 100.951 132.475 100.971 131.169 101.52C130.243 101.909 128.881 101.247 128.467 102.858C127.995 104.712 129.588 107.639 130.324 110.126C128.414 109.221 128.298 105.698 127.082 103.764C126.777 110.691 127.258 114.934 128.947 121.034C129.018 121.294 128.861 121.512 128.809 121.745C128.809 121.737 128.807 121.603 128.807 121.603C128.795 121.637 128.783 121.656 128.771 121.682C128.785 121.703 128.795 121.724 128.809 121.745C128.745 123.519 132.345 129.356 128.917 127.408C129.054 127.96 129.121 128.583 129.334 129.046C132.078 134.956 131.014 140.931 135.749 146.97C133.503 146.451 132.234 143.708 130.929 141.306C130.389 140.311 129.767 138.72 129.257 139.084C128.781 139.423 129.216 140.845 129.774 141.969C131.186 144.828 130.473 145.333 129.917 146.046C129.917 146.046 129.641 145.708 129.643 145.707C129.195 144.589 129.335 142.56 128.288 142.504C127.152 142.437 127.943 145.637 128.497 146.905C130.423 151.34 129.781 152.697 128.047 153.771C130.343 155.185 131.172 157.596 131.566 159.832C131.994 162.265 131.051 161.876 129.922 161.003C128.682 160.045 129.176 161.981 129.4 163.436C129.676 165.25 130.884 167.272 130.939 169.019C130.978 169.049 131.021 169.094 131.06 169.125C131.019 169.087 130.978 169.049 130.939 169.019L130.934 169.012C129.31 168.167 130.135 170.594 130.696 172.491C131.511 175.252 132.485 178.031 133.292 180.787C133.875 182.773 134.015 184.965 132.597 182.81C128.58 176.707 130.432 182.998 130.985 185.134C132.244 189.993 133.964 194.981 135.496 199.918C135.322 199.982 135.148 200.054 134.974 200.118C133.7 201.496 136.153 207.607 135.92 207.654C132.902 208.237 137.407 216.925 136.104 219.113C138.902 226.809 137.757 231.557 138.275 237.282C138.849 243.61 139.301 249.785 140.429 256.583C141.932 265.638 144.162 275.091 146.106 284.429C145.265 283.702 144.789 281.194 144.067 281.377C143.436 281.54 143.979 283.362 144.189 284.607C144.47 286.285 144.858 288.033 145.169 289.736C146.571 297.465 146.982 302.75 146.24 306.299C144.006 294.701 140.941 283.611 140.054 273.593C138.751 258.851 135.7 242.765 133.259 227.152C133.066 225.918 132.678 224.155 132.136 223.137C130.333 219.762 130.18 217.359 129.982 214.518C129.808 212.018 129.565 208.564 126.978 207.28C126.757 206.692 126.537 206.105 126.316 205.517C127.268 202.455 126.731 197.91 125.638 192.736C125.283 191.067 125.252 189.544 125.13 188.01C124.51 180.147 123.352 172.038 119.57 162.693C122.173 163.594 121.772 160.855 119.747 156.151C118.849 154.222 117.954 152.3 116.65 149.503C117.09 154.655 116.996 158.33 118.037 163.113C118.567 165.538 118.534 167.739 116.893 166.385C114.969 164.797 114.718 162.212 114.602 159.912C114.561 159.085 114.589 158.313 114.66 157.619C115.014 154.286 114.146 149.872 113.453 145.623C112.188 137.855 108.307 129.046 107.544 121.61C107.14 117.681 104.73 113.689 104.518 109.936C104.428 108.379 103.975 107.924 99.6617 108.801C98.6517 109.005 97.6646 109.282 96.6571 109.492C96.2739 109.574 95.6607 109.882 95.4725 109.515C92.7753 104.249 93.0967 108.127 92.8225 109.793C92.2895 112.993 90.0676 107.325 88.9351 107.651C88.437 107.799 87.2266 105.682 87.1491 104.517C86.8232 99.7406 84.3008 93.866 84.0147 89.1675C83.8025 88.9328 83.5932 88.6975 83.3838 88.4622C82.3042 90.2754 81.0882 87.726 79.9448 84.6784C77.0848 77.06 75.2912 69.3276 74.6475 62.9765C73.6477 53.1187 72.2457 42.8889 71.6801 33.372C71.1716 24.7805 69.9318 15.4519 68.9974 6.43876C68.7745 4.28947 68.1076 2.01474 66.7203 0.649101C65.393 -0.651564 64.7386 0.0528951 64.9158 2.30742C65.9642 15.854 67.8606 30.1895 69.6868 44.3441C71.5947 59.103 71.6145 77.7328 67.5055 85.4812C66.3733 77.7764 65.4315 71.0608 66.7352 66.6157C67.7853 69.0696 68.4718 69.1939 68.6236 67.6517C68.7809 66.0294 68.56 64.077 66.8625 62.7204C66.1761 60.4343 67.0641 60.2594 67.2171 59.1114C67.8749 54.2484 67.035 51.9193 63.1424 47.9571C62.3818 45.0966 64.7411 46.386 63.5035 42.7687C61.0801 35.6798 60.7996 29.6861 60.8512 24.7433C60.8971 20.6617 59.3732 16.3221 59.0833 12.2556C57.5726 12.0783 58.3421 14.5817 58.4554 16.1174C59.6064 31.6124 61.4206 47.7738 61.0951 61.7898C60.7828 62.2885 60.468 62.7798 60.1529 63.2791C60.4652 62.7805 60.7828 62.2884 61.0953 61.7819C60.4139 59.3448 60.0486 56.8105 58.4839 54.6657C57.9116 53.1184 57.3036 51.2796 56.7129 52.5373C56.2857 53.4492 55.7418 54.0491 54.9562 54.1135C53.6291 51.4243 54.4962 49.5579 53.2195 46.8807C52.0593 46.33 51.0261 45.9471 52.5843 49.7581C53.3438 51.6169 54.0196 53.5346 54.7328 55.4277C54.208 55.3605 54.1252 55.9951 54.3586 57.1321C54.1821 57.1022 54.0054 57.0722 53.826 57.043C51.8197 54.1803 50.4937 53.9602 49.9885 56.3972C49.6005 56.0219 49.2125 55.6468 48.8246 55.2715C47.681 54.3857 46.7743 54.0996 46.722 56.2182C48.0704 57.7348 48.3273 56.5154 48.7855 55.8645C49.4497 57.3588 50.1129 58.8849 50.5645 57.5728C50.8945 57.5671 51.2273 57.5607 51.5575 57.547C51.5999 59.9591 51.6423 62.3712 51.6846 64.7834C51.7317 66.9657 49.2845 65.176 50.5691 69.3346C50.5128 70.7994 49.1942 70.0963 49.5502 72.6564C50.5439 73.0406 51.0496 72.0551 52.6422 75.5899C54.3344 79.3539 53.0413 79.8519 53.4018 80.8094C55.5903 86.6355 53.6284 85.088 52.2988 84.9791C51.8209 84.9404 50.8608 84.3905 51.3442 86.4161C51.751 88.1123 52.411 88.9607 53.1616 89.1964L53.2594 89.3078C53.399 89.6935 53.5275 90.0738 53.6444 90.4647C53.7235 92.5291 52.9562 93.67 53.803 96.5657C53.0032 96.1995 53.2412 97.7141 53.0242 98.4036C52.019 97.3357 51.0139 96.2677 50.0087 95.1998C49.1414 93.9657 48.9365 92.5618 48.6465 91.2565C46.3899 81.1309 45.5461 72.1045 44.9081 63.2513C44.7861 61.5519 45.0285 60.0834 43.777 57.9288C42.7415 56.15 41.6385 55.0575 40.8198 55.1848C39.8596 55.3293 40.2524 57.4548 40.701 59.4253C41.4057 62.5276 42.1794 65.5033 40.7985 66.4478C40.1181 66.9138 40.4214 69.3598 41.3606 71.3267C43.9987 76.8509 43.8178 80.317 43.4933 83.7769C43.4152 84.6156 43.0394 85.3342 43.2742 86.2578C45.6561 95.6521 43.5373 98.993 41.8137 102.834C40.8897 104.887 40.6857 107.853 40.6499 111.191C40.5678 117.758 39.1062 121.948 35.6561 123.074C32.946 110.869 31.3444 99.7621 28.4225 88.0004C27.7179 87.7382 27.524 87.9806 27.5203 88.6994C27.5155 89.3632 27.8315 90.5599 27.2382 90.3428C26.0052 88.5706 26.465 85.0239 24.639 84.4072C23.3037 83.9526 24.1626 87.2556 24.1155 88.9549C24.0022 92.7681 26.4255 99.6046 23.8659 100.563C23.7259 100.619 24.0648 102.41 24.4081 103.206C25.4984 105.721 26.0068 108.278 27.6 110.929C29.2067 113.6 31.3128 119.792 30.6184 120.601C28.8101 122.718 30.1539 127.139 31.1279 131.661C31.4753 133.277 31.8943 135.12 31.0443 135.515C30.1224 135.95 29.3259 133.848 28.5167 132.561C27.6327 131.149 26.7823 129.572 25.9487 127.999C25.5264 127.205 25.0349 125.426 24.7002 125.922C23.6749 127.454 21.0202 126.321 22.1751 131.519C23.7231 138.488 24.2485 145.009 27.0486 152.562C28.5667 156.651 29.8955 160.839 31.1753 164.975C31.8508 167.161 31.7712 168.82 30.7338 168.651C29.7693 168.497 28.992 166.579 28.2945 164.722C27.2053 161.827 26.9948 159.296 26.3422 156.584C25.8758 154.642 25.3012 152.472 24.1198 151.019C22.9141 149.532 22.8316 151.279 22.3002 151.758C20.8655 153.054 20.8124 156.143 21.7119 160.36C23.8673 170.477 22.7086 177.902 25.2518 188.316C25.3439 188.689 25.3327 189.031 25.3445 189.36C25.4382 192.099 24.9835 193.767 23.0722 192.137C21.109 190.455 20.1858 187.483 19.7485 184.476C19.3136 181.485 19.5722 179.263 19.8419 177.047C20.3731 172.694 20.025 167.647 18.2242 161.084C16.5443 154.958 15.931 149.231 13.5596 142.706C12.5044 139.804 11.0717 136.035 10.7828 133.664C10.2177 129.046 9.30927 129.936 8.41644 130.088C6.06325 130.51 3.87212 131.406 1.44232 131.585C-0.119977 131.695 -0.38746 132.981 0.515442 136.834C2.3483 144.659 4.61452 153.023 5.33762 159.963C6.34906 169.811 8.45813 180.483 8.93985 189.894ZM97.5121 438.118C97.5017 438.089 97.4971 438.059 97.4842 438.022C97.4945 438.051 97.4992 438.082 97.5121 438.118ZM88.3338 427.796L88.3405 427.763C88.3408 427.755 88.3408 427.755 88.341 427.747C88.3413 427.739 88.3364 427.803 88.3338 427.796C88.2043 428.394 88.1758 429.095 88.3055 429.956C88.1732 429.088 88.2017 428.387 88.3338 427.796ZM88.8727 438.045C88.346 436.566 88.1157 435.334 88.152 434.307C88.1131 435.326 88.3432 436.567 88.8727 438.045C88.3224 438.236 87.7668 438.421 87.2166 438.612C87.7668 438.421 88.3199 438.229 88.8727 438.045ZM68.5151 400.06C68.5099 400.045 68.5101 400.037 68.505 400.023C68.5101 400.037 68.5127 400.045 68.5151 400.06ZM68.2805 399.215C68.2627 399.156 68.2478 399.096 68.23 399.037C68.2506 399.096 68.2627 399.156 68.2805 399.215ZM91.4123 454.432L91.3906 454.405C91.3989 454.411 91.4069 454.425 91.4123 454.432ZM141.189 554.297C140.873 553.985 140.561 553.678 140.244 553.365C140.026 553.069 139.807 552.773 139.591 552.484C139.81 552.78 140.028 553.076 140.244 553.365C140.558 553.679 140.875 553.992 141.189 554.297C141.189 554.297 141.216 554.339 141.249 554.378L141.189 554.297ZM152.562 195.633C152.546 195.787 152.532 195.948 152.516 196.101C152.532 195.948 152.548 195.786 152.562 195.633ZM58.7552 77.3316C58.7552 77.3316 58.7577 77.3388 58.7549 77.3395C58.7523 77.3322 58.7552 77.3316 58.7552 77.3316ZM54.7646 55.4914C54.762 55.4841 54.762 55.4841 54.7594 55.4768C54.7623 55.4761 54.762 55.4841 54.7646 55.4914ZM54.1083 72.3851C54.6877 73.5441 55.1243 74.9336 55.7481 76.0272C55.1243 74.9336 54.6905 73.5435 54.1083 72.3851ZM30.8181 182.288C30.5538 180.543 30.0169 178.601 29.2567 176.505C30.0169 178.601 30.5567 180.542 30.8181 182.288ZM30.7405 186.905C30.7434 186.905 30.7434 186.905 30.7405 186.905C30.7506 186.943 30.7604 186.988 30.7676 187.025C30.7578 186.98 30.7506 186.943 30.7405 186.905C30.7341 186.931 30.7333 186.955 30.7269 186.98C30.7333 186.955 30.7369 186.93 30.7405 186.905ZM152.818 551.727C152.881 551.87 152.944 552.013 153.007 552.148C152.944 552.013 152.878 551.87 152.818 551.727ZM153.229 552.601C153.285 552.707 153.341 552.812 153.397 552.902C153.344 552.811 153.285 552.707 153.229 552.601ZM152.293 550.216C152.291 550.248 152.288 550.272 152.287 550.304C152.288 550.272 152.289 550.24 152.293 550.216ZM153.661 553.282C153.71 553.342 153.756 553.402 153.805 553.454C153.756 553.402 153.707 553.342 153.661 553.282ZM153.887 553.521C153.928 553.559 153.969 553.597 154.008 553.619C153.966 553.59 153.925 553.552 153.887 553.521ZM154.127 553.671C154.158 553.687 154.188 553.704 154.219 553.704C154.188 553.704 154.155 553.68 154.127 553.671Z" fill="white"/>
</svg>
