<svg xmlns="http://www.w3.org/2000/svg" viewBox="0 0 820 633">
  <defs>
    <mask id="imageMask">
      <rect width="820" height="633" fill="white"/>
      <path fill="black" d="M224.619 613C211.063 595.546 214.593 569.355 197.006 552.892C195.377 551.384 194.688 546.881 195.753 544.898C201.747 533.579 194.207 526.576 188.756 518.231C185.163 512.716 179.377 503.834 189.821 500.281C200.787 496.563 193.977 492.763 190.615 490.986C166.135 478.283 164.924 449.344 147.859 430.94C141.071 423.607 134.784 407.619 135.452 397.064C136.371 382.75 128.183 378.412 121.04 370.955C119.139 368.972 119.16 364.49 119.453 361.268C120.163 353.604 123.922 346.933 127.682 340.343L127.619 338.856C127.285 333.341 128.643 323.922 126.324 322.931C109.176 315.618 115.672 297.544 108.09 286.018C105.187 281.598 105.145 269.969 115.338 271.89C124.34 273.604 136.643 273.542 141.321 284.18C154.125 313.346 178.229 336.068 189.069 366.122C193.748 379.073 205.779 381.862 215.282 388.058C218.561 390.186 220.546 386.592 221.653 381.986C226.185 362.982 217.622 350.382 203.126 339.889C196.756 335.283 190.782 330.325 186.625 323.344C169.038 293.764 162.814 261.087 159.326 227.624C160.684 225.827 162.041 224.01 163.399 222.213C155.232 213.682 146.188 205.461 152.726 191.89C154.146 188.936 152.538 188.192 149.99 187.717C139.755 185.776 139.734 177.927 139.755 170.119C139.776 164.913 134.429 142.812 131.776 136.987C131.317 135.995 130.356 134.467 130.711 133.992C140.131 121.825 125.218 115.546 123.881 106.024C121.562 102.368 122.147 98.4842 122.941 94.5802L122.314 94.4356C121.541 94.353 120.768 94.2704 119.996 94.1877C120.789 93.9812 121.604 93.7746 122.398 93.5681C122.899 92.7006 123.108 91.771 123.045 90.7796C122.481 85.7189 121.896 80.6789 121.332 75.6182C117.719 65.4348 107.568 56.0571 118.722 44.242C122.168 40.5858 118.053 37.3429 114.44 35.3393C109.135 34.9262 106.732 38.954 103.558 42.0318C100.947 44.5518 105.458 50.6866 98.7327 50.8932C96.0384 50.9758 94.618 49.6537 94.4092 47.0718C94.0122 42.2797 95.2656 39.5531 100.738 37.5288C104.101 36.2894 104.832 30.4231 109.239 27.1595C112.936 24.433 114.565 12.3287 107.171 9.7467C96.7903 6.13194 99.5683 -2.93596 93.1559 -9.00881C100.466 -11.095 108.466 1.71154 111.202 -11.9419C114.586 -15.8046 118.012 -20.7413 121.228 -12.1279C121.228 -12.1485 121.249 -12.1485 121.249 -12.1691C132.089 -25.4508 129.938 -40.4883 121.458 -52.2208C103.035 -77.6688 88.9786 -105.43 72.5824 -131.849C52.0713 -164.919 29.952 -197.245 8.31307 -229.758C3.11213 -237.586 -0.0207656 -246.406 0.000113907 -256.094C12.8037 -242.854 20.0725 -226.246 32.6047 -213.44C47.9357 -215.939 60.3007 -223.003 67.7156 -236.863C69.9088 -240.953 71.5588 -244.96 76.8223 -245.002C77.8876 -245.022 79.3079 -243.081 79.9762 -241.738C82.9213 -235.975 79.1199 -232.34 75.3185 -229.014C72.2064 -226.308 66.0656 -225.812 67.8828 -219.678C69.679 -213.646 75.2141 -213.749 80.2688 -213.481C80.4358 -214.452 80.6238 -215.443 80.8117 -216.414C81.313 -216.166 81.7935 -215.898 82.2947 -215.65C81.6263 -214.927 80.9579 -214.204 80.2896 -213.481C66.8592 -201.769 76.9686 -192.226 82.4619 -182.497C88.8115 -181.382 85.031 -192.784 91.3597 -188.983C95.6833 -186.381 93.3649 -181.485 91.2344 -177.168C87.1615 -168.926 75.7154 -168.203 73.0418 -158.867C84.5714 -142.962 92.3832 -123.463 114.147 -117.493C124.507 -118.774 134.241 -121.439 141.593 -129.453C137.123 -133.811 136.309 -138.397 139.254 -144.243C143.786 -153.228 150.094 -143.85 155.107 -146.267C155.169 -147.403 155.232 -148.56 155.295 -149.696C157.53 -156.677 152.015 -160.292 147.692 -162.296C137.436 -167.088 137.603 -173.285 142.846 -181.32C134.784 -183.633 129.75 -188.054 134.742 -196.564C140.277 -205.962 135.724 -212.655 130.042 -219.43C123.024 -220.752 113.959 -221.289 116.884 -231.41C118.22 -236.078 124.486 -242.275 128.81 -242.523C137.144 -243.019 135.577 -233.042 138.794 -227.878C139.859 -226.184 138.063 -222.735 137.562 -220.091C146.856 -214.617 156.13 -209.164 165.425 -203.69C160.934 -214.369 147.525 -222.053 154.167 -236.471C147.796 -236.801 142.888 -240.891 143.118 -246.22C143.473 -254.524 151.076 -241.759 153.561 -248.534C153.979 -249.67 156.214 -250.145 157.613 -250.93C157.676 -255.557 154.397 -257.994 151.18 -260.473C136.914 -262.518 144.12 -274.581 142.011 -284.186C137.248 -277.555 134.909 -268.281 127.16 -277.948C119.808 -275.738 121.75 -269.004 120.246 -263.984C122.168 -259.853 130.105 -258.345 126.763 -252.335C124.862 -248.926 120.33 -244.96 116.821 -244.795C105.229 -244.258 110.91 -255.371 107.359 -260.494C95.0149 -269.169 107.589 -278.423 106.691 -287.367C110.304 -286.293 114.878 -280.427 117.176 -286.541C121.395 -297.695 128.246 -291.23 134.387 -290.631C137.687 -291.519 140.987 -292.428 144.287 -293.316C133.155 -315.459 123.735 -338.552 109.218 -358.877C102.033 -368.937 100.132 -379.905 100.801 -391.7C95.7041 -396.636 99.9651 -401.656 100.675 -406.634C88.4981 -402.399 89.0412 -411.798 86.1171 -418.924C82.3574 -428.116 89.5426 -424.212 92.6338 -425.348C94.4718 -432.495 100.884 -435.593 106.148 -439.229C111.349 -442.843 112.268 -446.479 109.594 -451.663C103.056 -462.859 104.811 -475.356 104.059 -487.419C104.017 -488.018 106.169 -488.761 107.672 -489.464C107.631 -487.873 107.589 -486.303 107.568 -484.713C109.406 -485.704 111.035 -486.675 110.722 -487.708C111.035 -486.675 109.385 -485.684 107.568 -484.713C107.61 -486.303 107.652 -487.873 107.672 -489.464C107.672 -489.526 107.672 -489.588 107.672 -489.629L108.216 -489.711C95.9131 -524.475 74.1697 -554.922 57.669 -589.582C64.6243 -589.314 66.0238 -586.939 67.6947 -584.646C79.2661 -568.761 92.6756 -553.91 99.2549 -535.072C102.576 -525.57 112.999 -523.856 117.448 -513.507C124.069 -498.056 133.259 -479.921 154.835 -477.111C157.947 -488.782 154.94 -499.337 147.17 -507.992C141.509 -514.271 146.313 -518.175 148.82 -522.658C150.804 -526.19 154.438 -526.252 157.613 -524.269C162.104 -521.48 166.386 -517.762 162.793 -512.082C156.235 -501.671 164.527 -495.888 169.31 -488.885C180.067 -488.555 187.461 -484.961 185.602 -472.423C193.372 -477.896 203.398 -491.88 201.81 -467.031C201.434 -461.165 209.559 -458.294 216.306 -459.347C221.757 -460.194 227.083 -461.702 232.472 -462.921C231.01 -467.217 225.767 -473.104 235.062 -474.096C244.524 -475.108 249.85 -467.63 252.001 -460.401C253.923 -453.936 247.177 -457.013 243.876 -456.724L243.333 -455.547C243.229 -451.126 243.125 -446.685 243.02 -442.265C257.349 -438.568 246.717 -429.334 247.49 -422.601C252.419 -421.279 257.349 -419.957 262.278 -418.655C261.129 -423.53 259.98 -428.426 258.852 -433.3C258.268 -434.54 256.952 -436.048 257.286 -436.956C258.205 -439.415 260.252 -439.187 262.236 -437.886C273.035 -428.963 271.928 -413.016 282.643 -404.052C304.47 -404.857 297.222 -390.605 295.739 -379.347C299.686 -374.679 303.321 -369.68 307.644 -365.405C314.036 -359.105 321.91 -351.834 330.662 -358.836C339.455 -365.9 330.39 -373.791 327.884 -381.144C326.443 -385.358 323.748 -386.804 319.174 -387.135C315.059 -387.444 310.652 -391.762 313.326 -395.108C321.743 -405.684 316.229 -416.011 314.955 -426.608C314.537 -429.975 313.326 -437.349 321.325 -431.607C325.461 -434.292 325.022 -438.733 325.712 -442.761C320.218 -452.51 314.266 -462.033 309.294 -472.03C293.295 -504.171 269.672 -532.077 256.429 -565.704C249.599 -575.95 243.375 -586.443 241.809 -599.022C249.14 -591.256 255.302 -582.931 257.871 -572.521C263.176 -569.526 275.311 -571.24 272.366 -562.627C267.855 -549.428 277.191 -543.313 281.682 -534.473C292.125 -513.941 309.482 -498.717 323.56 -481.015C332.04 -470.357 340.124 -460.215 355.893 -462.694C357.418 -465.317 358.943 -467.92 360.488 -470.543C323.915 -535.671 281.849 -597.845 248.597 -667.971C256.764 -665.575 257.996 -661.527 259.897 -658.242C278.173 -626.68 296.616 -595.201 314.475 -563.412C341.753 -514.808 375.339 -470.15 404.247 -422.58C405.375 -420.721 407.735 -419.461 408.508 -417.54C415.86 -399.301 436.83 -393.207 443.326 -371.209C453.958 -335.268 484.808 -309.076 504.295 -276.915C516.389 -256.962 532.221 -238.578 540.576 -217.282C547.511 -199.559 553.63 -204.764 563.907 -211.044C555.636 -222.879 548.179 -234.715 539.532 -245.642C519.125 -271.462 508.535 -302.673 490.99 -330.207C475.2 -354.994 461.853 -381.867 457.989 -411.922C448.005 -421.816 447.504 -436.316 440.339 -447.574C447.629 -457.406 430.919 -476.533 453.352 -480.747C453.561 -480.788 453.603 -485.147 452.663 -486.923C450.01 -491.942 453.164 -495.557 455.232 -499.358C463.942 -515.449 472.777 -531.457 481.549 -547.486C510.081 -599.683 538.634 -651.86 567.27 -704.16C573.64 -700.504 575.04 -694.762 577.63 -689.991C684.717 -494.421 791.742 -298.79 898.746 -103.179C1014.77 108.957 1130.78 321.133 1246.81 533.269C1287.22 607.196 1327.45 681.206 1368.33 754.885C1375.55 767.919 1372.86 770.935 1358.74 770.212C1342.93 769.427 1327.01 770.191 1311.16 770.295C1305.85 773.249 1301.3 772.98 1297.96 767.362C1288 769.737 1277.89 770.584 1267.69 769.944C1260.47 769.489 1252.8 772.05 1246.12 768.085C1238.45 763.52 1242.23 754.885 1241.25 747.924C1230.45 751.456 1238.14 760.752 1234.53 766.556C1215.79 748.606 1208.86 737.204 1205.66 720.204C1205.51 719.481 1203.93 719.006 1203.01 718.428C1203.03 718.449 1203.34 718.8 1203.34 718.8C1203.17 718.717 1203.05 718.676 1202.9 718.614C1202.94 718.552 1202.97 718.49 1203.01 718.428C1198.31 713.822 1208.73 696.347 1190.12 703.535C1189.72 702.006 1188.68 700.333 1189.01 698.991C1193.44 681.846 1171.84 666.85 1189.49 648.157C1175.48 650.883 1173.45 658.836 1170.36 665.921C1169.09 668.854 1168.69 673.398 1164.35 672.758C1160.29 672.159 1159.83 668.172 1160.92 664.888C1163.63 656.543 1157.58 655.655 1152.08 654.126C1152.08 654.126 1151.02 655.18 1151.04 655.18C1150.68 658.381 1156.51 663.607 1149.54 664.392C1141.98 665.26 1139.66 656.398 1140.37 652.742C1142.79 639.956 1135.17 636.796 1120.8 635.04C1132.99 629.938 1132.83 623.122 1130.13 617.028C1127.19 610.398 1121.71 611.988 1116.14 614.963C1110.02 618.226 1108.72 612.856 1106.74 608.911C1104.25 603.994 1107.6 597.963 1103.77 593.357C1103.96 593.253 1104.15 593.109 1104.34 593.006C1104.15 593.13 1103.96 593.253 1103.77 593.357L1103.75 593.377C1094.75 596.579 1094.52 589.721 1093.77 584.413C1092.66 576.688 1092.6 568.818 1091.45 561.113C1090.63 555.557 1086.31 549.732 1081.86 556.238C1069.25 574.663 1066.7 557.064 1065.32 551.136C1062.19 537.648 1061.87 523.54 1060.41 509.68C1059.07 509.618 1057.72 509.535 1056.38 509.473C1044.41 506.644 1046.38 489.148 1044.68 489.169C1022.77 489.479 1032.49 463.989 1018.37 459.053C1018.87 437.199 999.672 425.466 989.417 410.16C978.096 393.243 966.316 376.801 957.627 358.314C946.055 333.692 938.473 307.583 929.22 281.949C925.252 284.366 928.051 291.224 922.704 291.182C918.025 291.141 917.336 286.039 915.769 282.652C913.639 278.087 912.072 273.274 910.088 268.626C901.023 247.537 891.102 233.449 877.525 224.609C890.245 256.336 896.094 287.237 914.161 314.007C940.771 353.398 958.734 397.374 979.704 439.739C981.354 443.085 982.963 447.94 981.73 450.935C977.595 460.87 982.336 467.253 987.829 474.813C992.654 481.464 999.317 490.656 984.821 495.593C984.738 497.266 984.654 498.939 984.571 500.612C998.398 508.048 1005.69 520.276 1010.7 534.488C1012.31 539.073 1015.76 543.08 1018.62 547.17C1033.32 568.136 1044.96 590.073 1041.74 616.843C1057.26 612.897 1061.12 620.313 1058.68 633.863C1057.22 639.461 1055.75 645.038 1053.62 653.155C1044.22 639.399 1034.74 629.835 1030.31 616.677C1028.08 610.005 1022.56 604.263 1014.67 608.807C1005.42 614.137 1009.93 621.056 1014.67 627.15C1016.38 629.339 1018.43 631.343 1020.58 633.119C1031 641.629 1035.72 653.713 1041.24 665.26C1051.33 686.37 1046.15 711.797 1058.84 731.73C1065.55 742.265 1058.78 754.183 1066.36 764.139C1069.5 768.27 1067.51 769.737 1036.1 770.067C1028.75 770.15 1021.37 770.026 1014.02 770.088C1011.22 770.109 1006.31 769.675 1005.92 770.749C1000.26 786.179 993.114 775.83 987.244 771.637C975.924 763.581 974.461 779.776 965.981 779.61C962.243 779.528 959.11 785.807 961.386 788.906C970.66 801.609 967.652 818.526 977.01 831.002C976.132 831.746 975.276 832.489 974.42 833.233C962.723 829.143 960.593 836.559 960.154 845.234C959.047 866.923 965.459 888.26 976.362 905.281C993.281 931.699 1008.36 959.337 1027.41 984.599C1044.62 1007.4 1058.64 1032.58 1073.97 1056.75C1077.62 1062.51 1078.56 1068.87 1072.42 1073.3C1066.53 1077.51 1060.39 1076.06 1056.17 1070.05C1030.71 1033.95 1009.11 995.257 987.474 957.085C964.937 917.282 920.26 868.492 873.703 850.708C884.543 871.57 894.297 889.727 913.847 900.571C915.08 893.507 919.445 892.763 924.187 896.708C929.158 900.86 932.353 906.107 924.082 910.692C924.918 917.096 931.372 917.013 935.173 919.926C951.34 932.257 951.235 938.867 934.317 951.612C936.029 959.564 948.958 954.751 949.251 964.976C949.836 985.012 962.347 1000.88 974.587 1013.79C984.717 1024.44 984.801 1036.73 992.612 1047.56C982.775 1048.94 981.981 1041.92 979.057 1037.83C949.606 996.559 923.059 953.14 887.133 916.641C883.812 915.526 880.491 914.431 877.149 913.316C880.47 914.431 883.812 915.526 887.154 916.662C888.386 923.458 892 930.315 886.527 936.884C886.36 941.284 886.653 946.468 879.614 943.535C874.517 941.408 869.379 940.168 863.886 940.478C861.338 948.327 871.718 952.686 869.483 960.473C862.925 962.621 856.826 964.253 858.246 953.326C858.936 947.997 858.915 942.564 859.207 937.173C855.803 937.669 853.714 936.058 852.565 932.939C851.437 933.125 850.309 933.311 849.16 933.497C842.414 942.213 833.934 943.597 824.639 937.524C822.905 938.743 821.172 939.962 819.438 941.18C813.799 944.196 808.326 945.497 802.875 939.982C808.389 935.19 813.068 938.227 817.746 939.652C818.665 935.335 819.501 930.935 825.725 934.096C827.981 933.91 830.258 933.724 832.534 933.558C827.02 927.217 821.506 920.876 815.992 914.534C811.063 908.792 798.739 914.968 797.465 903.298C793.559 899.497 786.291 902.141 782.552 895.221C788.379 893.61 794.186 895.882 796.504 885.657C798.948 874.772 788.964 874.256 789.11 871.529C789.967 854.942 780.359 860.189 771.586 861.284C768.432 861.676 763.231 863.7 761.644 858.103C760.328 853.414 762.772 850.791 767.304 849.716L767.701 849.365C767.722 848.27 767.68 847.196 767.534 846.102C763.106 840.648 755.148 838.128 753.937 830.031C749.383 831.477 747.357 827.367 744.224 825.694C739.963 829.102 735.702 832.51 731.441 835.918C728.517 839.678 730.501 843.478 731.671 847.072C740.694 874.958 756.673 899.105 773.633 922.673C776.892 927.196 782.071 930.894 778.75 937.297C775.993 942.585 771.127 946.117 765.257 946.282C758.386 946.489 755.942 940.685 754.25 935.252C751.577 926.701 749.676 918.438 738.021 916.807C732.277 916.001 728.455 909.412 730.105 903.69C734.741 887.62 725.175 878.655 714.648 869.794C712.1 867.646 707.818 865.993 707.192 863.432C700.779 837.385 678.347 829.928 657.397 820.922C646.181 816.109 637.659 808.467 629.388 799.75C613.033 782.606 593.023 772.525 566.873 771.679C577.818 805.286 593.65 835.34 602.088 867.914C597.932 869.03 596.031 868.513 594.277 866.634C592.647 864.898 591.916 861.573 588.407 862.502C584.293 867.894 595.948 876.899 585.024 879.626C577.045 881.63 574.935 872.458 570.528 868.038C560.586 858.123 560.607 838.748 540.91 837.798C539.824 837.736 537.819 832.841 538.237 830.548C539.594 823.298 536.9 816.295 541.349 808.384C545.84 800.411 545.255 782.915 538.592 781.222C521.214 776.781 519.71 764.387 515.449 751.952C513.924 747.511 512.337 742.43 505.611 741.914C498.301 741.335 497.946 747.325 495.544 751.188C492.933 755.422 490.949 760.07 489.069 764.697C488.108 767.031 489.048 771.988 485.581 770.894C474.928 767.506 459.618 772.092 454.96 757.777C448.715 738.588 436.601 721.196 437.457 699.714C437.937 688.085 436.893 676.311 435.64 664.702C434.971 658.567 430.439 654.271 423.797 655.345C417.614 656.336 416.946 661.831 416.674 667.119C416.236 675.36 420.894 682.115 422.982 689.613C424.486 694.983 425.802 701.015 421.27 705.539C416.654 710.165 411.891 705.642 407.129 704.712C394.263 702.192 386.472 694.137 382.441 682.549C372.749 654.746 347.016 636.011 339.246 607.196C338.975 606.163 338.077 605.275 337.367 604.408C331.414 597.178 324.312 593.088 315.247 598.521C305.953 604.118 306.83 612.463 311.091 620.602C315.331 628.699 322.432 634.359 329.597 639.998C343.674 651.069 353.45 664.495 357 682.776C360.321 699.838 369.929 715.205 369.512 733.734C369.324 741.975 368.655 752.717 372.394 759.099C379.663 771.534 371.35 769.758 364.917 769.902C347.914 770.233 330.871 769.221 313.931 770.233C303.049 770.894 298.141 767.692 295.008 757.054C288.637 735.448 283.917 712.169 272.137 693.558C255.323 667.16 243.981 637.932 224.619 613ZM229.36 -90.8472C229.36 -90.7646 229.402 -90.682 229.402 -90.5787C229.402 -90.6613 229.36 -90.7439 229.36 -90.8472ZM191.826 -58.2317L191.951 -58.1491C191.972 -58.1284 191.972 -58.1284 191.993 -58.1078C192.014 -58.0871 191.826 -58.2524 191.826 -58.2317C189.508 -59.7189 187.628 -61.5366 186.437 -63.8707C187.628 -61.5159 189.508 -59.6983 191.826 -58.2317ZM170.835 -85.3941C170.814 -81.201 172.213 -77.8341 174.929 -75.1694C172.213 -77.8134 170.793 -81.201 170.835 -85.3941C166.636 -85.5594 162.417 -85.704 158.219 -85.8692C162.417 -85.704 166.636 -85.5387 170.835 -85.3941ZM123.881 26.4572C123.881 26.4985 123.902 26.5193 123.902 26.5606C123.902 26.5193 123.902 26.4985 123.881 26.4572ZM124.319 28.8121C124.34 28.9773 124.382 29.1425 124.403 29.3078C124.403 29.1425 124.34 28.9773 124.319 28.8121ZM148.674 -129.845L148.59 -129.763C148.632 -129.784 148.653 -129.825 148.674 -129.845ZM246.675 -421.63C245.276 -420.618 243.897 -419.626 242.498 -418.614C241.725 -417.705 240.952 -416.796 240.18 -415.908C240.952 -416.817 241.725 -417.726 242.498 -418.614C243.876 -419.626 245.276 -420.638 246.675 -421.63C246.675 -421.63 246.759 -421.754 246.884 -421.878L246.675 -421.63ZM1186.67 510.506C1186.19 510.114 1185.71 509.701 1185.23 509.308C1185.71 509.701 1186.21 510.114 1186.67 510.506ZM833.85 877.375C833.85 877.375 833.85 877.354 833.829 877.354C833.829 877.375 833.85 877.375 833.85 877.375ZM859.27 936.987C859.27 937.008 859.27 937.008 859.27 937.029C859.291 937.029 859.27 937.008 859.27 936.987ZM814.175 893.156C815.323 889.768 814.948 885.864 816.556 882.621C814.948 885.864 815.344 889.768 814.175 893.156ZM391.568 619.59C393.97 624.32 394.994 629.732 394.868 635.681C394.994 629.732 393.991 624.32 391.568 619.59ZM379.934 607.547C379.955 607.547 379.955 607.547 379.934 607.547C379.913 607.444 379.872 607.32 379.83 607.217C379.872 607.341 379.913 607.444 379.934 607.547C379.83 607.485 379.767 607.423 379.663 607.361C379.767 607.423 379.851 607.485 379.934 607.547ZM331.873 -421.981C331.957 -422.394 332.04 -422.807 332.145 -423.2C332.04 -422.807 331.936 -422.394 331.873 -421.981ZM332.563 -424.522C332.688 -424.832 332.813 -425.141 332.98 -425.41C332.834 -425.141 332.688 -424.832 332.563 -424.522ZM331.936 -417.705C331.852 -417.788 331.769 -417.85 331.685 -417.932C331.769 -417.85 331.852 -417.767 331.936 -417.705ZM333.858 -426.567C334.046 -426.753 334.213 -426.938 334.422 -427.104C334.213 -426.938 334.025 -426.753 333.858 -426.567ZM334.818 -427.331C335.006 -427.455 335.194 -427.579 335.403 -427.661C335.194 -427.558 335.006 -427.434 334.818 -427.331ZM336.093 -427.868C336.26 -427.93 336.427 -427.992 336.636 -428.012C336.427 -427.992 336.26 -427.909 336.093 -427.868Z"/>
    </mask>
  </defs>
</svg>